<svg version="1.1" xmlns="http://www.w3.org/2000/svg" xmlns:xlink="http://www.w3.org/1999/xlink" width="1486" height="1024" viewBox="0,0,256,176.40625"><g fill="none" fill-rule="nonzero" stroke="none" stroke-width="1" stroke-linecap="butt" stroke-linejoin="miter" stroke-miterlimit="10" stroke-dasharray="" stroke-dashoffset="0" font-family="none" font-weight="none" font-size="none" text-anchor="none" style="mix-blend-mode: normal"><g transform="translate(-0.00663,0.00075) scale(0.17227,0.17227)"><g id="icomoon-ignore" fill="#000000" font-family="Inter, apple-system, BlinkMacSystemFont, &quot;Helvetica Neue&quot;, &quot;Segoe UI&quot;, &quot;Fira Sans&quot;, Roboto, Oxygen, Ubuntu, &quot;Droid Sans&quot;, Arial, sans-serif" font-weight="400" font-size="16" text-anchor="start"></g><path d="M169.219,310.577c-1.087,4.603 -0.418,8.808 2.032,12.601c3.233,5.427 7.985,8.133 14.228,8.133c2.707,0 5.562,-0.81 8.545,-2.437c137.933,-83.201 300.833,-154.22 488.652,-213.028c58.809,-18.696 116.814,-34.963 173.996,-48.779c45.532,-10.3 68.703,-15.585 69.52,-15.855c4.603,-0.817 8.133,-3.112 10.57,-6.912c2.707,-4.063 3.53,-8.275 2.437,-12.601c-0.81,-4.61 -3.105,-8.133 -6.905,-10.57c-3.8,-2.707 -7.863,-3.523 -12.196,-2.443c-0.817,0.27 -24.393,5.555 -70.735,15.855c-57.999,14.086 -116.807,30.629 -176.439,49.595c-190.546,59.625 -355.855,131.717 -495.975,216.288c-3.813,2.43 -6.378,5.825 -7.728,10.151zM394.032,816.305c-21.693,-21.679 -47.834,-32.519 -78.463,-32.519c-30.339,0 -56.379,10.84 -78.058,32.519c-21.686,21.686 -32.519,47.834 -32.519,78.463c0,30.629 10.833,56.777 32.519,78.456c21.423,21.686 47.422,32.526 78.058,32.526c30.636,0 56.77,-10.84 78.463,-32.526c21.679,-21.679 32.519,-47.827 32.519,-78.456c0,-30.629 -10.84,-56.777 -32.519,-78.463zM144.414,459.37l-11.778,73.988c-4.063,27.099 -6.783,47.969 -8.133,62.609c-0.547,6.23 -0.817,11.245 -0.817,15.038v167.901c-8.396,7.316 -13.695,12.601 -15.855,15.855c-2.977,4.88 -4.468,11.791 -4.468,20.735c0,24.933 1.492,42.009 4.468,51.222c4.063,10.84 9.638,18.156 16.678,21.949c3.807,1.897 7.978,2.848 12.601,2.848h34.956c0.817,-37.669 14.761,-69.783 41.867,-96.349c26.843,-26.283 59.22,-39.431 97.166,-39.431c38.486,0 71.282,13.553 98.388,40.652c27.356,27.099 41.051,59.902 41.051,98.381v15.45h545.564v-15.45c0,-38.486 13.56,-71.282 40.652,-98.381c27.106,-27.099 59.902,-40.652 98.388,-40.652c38.479,0 71.41,13.553 98.786,40.652c27.099,27.099 40.652,59.895 40.652,98.381v15.45h71.545c11.663,0 20.606,-3.253 26.836,-9.76c5.42,-5.69 8.396,-13.553 8.943,-23.583l0.81,-53.659c0,-6.237 -3.658,-10.442 -10.975,-12.601c-7.04,-2.443 -10.57,-6.243 -10.57,-11.386c0,-16.806 -2.983,-40.511 -8.943,-71.14c-7.586,-40.922 -17.076,-64.64 -28.456,-71.147c-13.276,-8.936 -36.447,-22.091 -69.52,-39.431c-32.796,-17.083 -56.649,-28.604 -71.552,-34.558c-9.753,-4.887 -15.308,-7.721 -16.665,-8.531c-3.8,-2.713 -9.49,-7.998 -17.076,-15.855c-2.437,-2.443 -15.855,-15.855 -40.247,-40.247c-22.219,-22.226 -39.977,-40.794 -53.254,-55.697c-16.26,-18.156 -31.844,-30.893 -46.754,-38.216c-13.276,-6.507 -28.456,-9.753 -45.526,-9.753h-758.592c-19.79,0 -34.558,4.063 -44.304,12.196c-8.687,7.316 -13.972,18.156 -15.868,32.519zM203.364,348.388l6.925,42.684l511.809,-11.785c26.019,-132.797 45.532,-221.83 58.545,-267.092c-218.711,62.055 -411.147,140.802 -577.28,236.193zM799.752,107.315c-11.386,35.226 -28.058,107.864 -50.007,217.902l0.817,0.405l121.552,49.595l1.222,0.817l65.855,-1.627l-30.899,-294.738c-38.216,8.943 -74.393,18.156 -108.539,27.646zM1213.599,816.305c-21.679,-21.679 -47.834,-32.519 -78.456,-32.519c-30.359,0 -56.379,10.84 -78.058,32.519c-21.679,21.686 -32.519,47.834 -32.519,78.463c0,30.629 10.84,56.777 32.519,78.456c21.409,21.686 47.422,32.526 78.058,32.526c30.623,0 56.777,-10.84 78.456,-32.526c21.686,-21.679 32.519,-47.827 32.519,-78.456c0,-30.629 -10.833,-56.777 -32.519,-78.463zM746.498,341.477l-7.728,37.399l93.906,-2.032zM1106.275,577.264c5.15,7.586 6.095,14.64 2.848,21.14c-3.253,6.243 -8.666,9.355 -16.266,9.355h-181.312c-13.823,0 -22.766,-2.443 -26.829,-7.323c-2.713,-3.517 -4.07,-11.11 -4.07,-22.759v-113.021h91.881c14.363,0 25.203,1.897 32.519,5.697c8.133,4.063 20.735,14.768 37.804,32.114c27.653,28.186 48.792,53.119 63.425,74.798zM1261.568,722.399c-2.167,-9.76 -3.523,-20.735 -4.063,-32.931v-15.855c10.023,-2.167 20.188,-0.817 30.488,4.063c20.6,9.213 31.304,30.771 32.114,64.64c0.54,4.88 -8.403,5.42 -26.829,1.627c-18.696,-4.063 -29.266,-11.245 -31.709,-21.544zM1075.376,894.769c0,-16.53 5.818,-30.629 17.481,-42.279c11.663,-11.65 25.756,-17.475 42.286,-17.475c16.53,0 30.751,5.832 42.684,17.475c11.65,11.67 17.481,25.749 17.481,42.279c0,16.806 -5.825,31.034 -17.481,42.684c-11.926,11.65 -26.154,17.488 -42.684,17.488c-16.543,0 -30.636,-5.832 -42.286,-17.488c-11.663,-11.926 -17.481,-26.154 -17.481,-42.684zM482.248,308.552c1.62,-11.663 7.175,-23.036 16.671,-34.153c18.426,-22.503 46.612,-33.741 84.551,-33.741c37.946,0 66.537,11.116 85.78,33.343c6.25,7.047 11.123,14.768 14.646,23.178c1.62,4.326 2.7,7.985 3.247,10.975l0.405,1.215v16.671c0,2.18 -0.817,3.928 -2.443,5.285c-1.627,1.627 -3.388,2.437 -5.271,2.437h-190.262c-2.18,0 -3.928,-0.817 -5.285,-2.437c-1.62,-1.363 -2.443,-3.118 -2.443,-5.292v-16.665zM585.097,605.72v-140.653h239.453v142.28zM268.41,465.877c6.77,-0.817 34.281,-0.958 82.52,-0.405c81.311,0.533 141.888,0.81 181.731,0.81v141.078l-278.074,0.405c-8.396,0 -15.308,-1.627 -20.735,-4.88c-5.953,-3.53 -8.95,-8.538 -8.95,-15.045c0,-29.273 1.64,-56.912 4.887,-82.931c1.627,-13.283 5.143,-22.631 10.57,-28.051c5.42,-5.703 14.768,-9.355 28.051,-10.981zM273.296,852.49c11.65,-11.65 25.743,-17.475 42.272,-17.475c16.543,0 30.771,5.832 42.684,17.475c11.663,11.67 17.488,25.749 17.488,42.279c0,16.806 -5.832,31.034 -17.488,42.684c-11.913,11.65 -26.141,17.488 -42.684,17.488c-16.53,0 -30.636,-5.832 -42.272,-17.488c-11.663,-11.926 -17.481,-26.154 -17.481,-42.684c0,-16.53 5.825,-30.629 17.481,-42.279z" fill="#e44848"></path></g></g></svg>