<svg aria-hidden="true" style="position: absolute; width: 0; height: 0; overflow: hidden;" version="1.1" xmlns="http://www.w3.org/2000/svg" xmlns:xlink="http://www.w3.org/1999/xlink">
<defs>
<symbol id="AC" viewBox="0 0 40 32">
<path fill="#101828" d="M19.38 0c-1.876 0-3.695 0.641-5.146 1.812s-2.446 2.801-2.814 4.613l-0.145 0.719c-0.039 0.161-0.044 0.328-0.016 0.49s0.090 0.318 0.18 0.457c0.091 0.139 0.209 0.259 0.347 0.352s0.295 0.158 0.459 0.19c0.165 0.032 0.334 0.032 0.498-0.002s0.32-0.099 0.458-0.193c0.138-0.094 0.255-0.214 0.345-0.354s0.15-0.296 0.177-0.459l0.148-0.716c0.277-1.343 1.051-2.537 2.171-3.351s2.507-1.189 3.892-1.054c1.385 0.135 2.67 0.772 3.606 1.787s1.456 2.335 1.459 3.706c0 1.469-0.593 2.878-1.647 3.917s-2.486 1.623-3.978 1.624h-18.125c-0.332 0-0.649 0.13-0.884 0.36s-0.366 0.544-0.366 0.87c0 0.326 0.132 0.639 0.366 0.87s0.552 0.36 0.884 0.36h18.125c2.12-0.051 4.136-0.916 5.617-2.41s2.311-3.499 2.311-5.587-0.828-4.094-2.308-5.589c-1.48-1.495-3.496-2.361-5.616-2.414zM33.75 11.077c-1.658 0-3.247 0.648-4.419 1.802s-1.831 2.719-1.831 4.351c0 0.326 0.132 0.639 0.366 0.87s0.552 0.36 0.884 0.36 0.649-0.13 0.884-0.36c0.235-0.231 0.366-0.544 0.366-0.87 0-0.73 0.22-1.444 0.632-2.051s0.998-1.080 1.683-1.36c0.685-0.279 1.439-0.353 2.167-0.21s1.396 0.494 1.92 1.011c0.524 0.516 0.882 1.174 1.026 1.891s0.070 1.459-0.213 2.133-0.765 1.251-1.381 1.657c-0.617 0.406-1.342 0.622-2.083 0.622h-32.5c-0.332 0-0.649 0.13-0.884 0.361s-0.366 0.544-0.366 0.87c0 0.326 0.132 0.64 0.366 0.87s0.552 0.36 0.884 0.36h24.375c0.829 0.002 1.623 0.327 2.208 0.906s0.913 1.361 0.911 2.177c-0.002 0.816-0.333 1.598-0.92 2.174s-1.383 0.898-2.212 0.897c-0.746 0.001-1.469-0.259-2.040-0.733s-0.952-1.132-1.078-1.856l-0.012-0.074c-0.023-0.163-0.078-0.32-0.163-0.462s-0.199-0.265-0.333-0.363-0.288-0.168-0.451-0.206c-0.163-0.039-0.332-0.044-0.497-0.017s-0.323 0.086-0.464 0.175c-0.141 0.088-0.263 0.204-0.358 0.339s-0.162 0.288-0.196 0.45c-0.034 0.161-0.035 0.328-0.003 0.489l0.013 0.074c0.222 1.299 0.905 2.479 1.927 3.33s2.317 1.317 3.655 1.317c1.493 0.001 2.926-0.582 3.983-1.621s1.652-2.447 1.655-3.918c0-1.14-0.35-2.198-0.947-3.077h3.447c1.658 0 3.247-0.648 4.419-1.802s1.831-2.719 1.831-4.351-0.658-3.197-1.831-4.351c-1.172-1.154-2.762-1.802-4.419-1.802z"></path>
</symbol>
<symbol id="alcove" viewBox="0 0 46 32">
<path d="M2.608 1.8h12.409c0.105 0 0.203-0.040 0.278-0.112l1.192-1.163c0.346-0.338 0.807-0.524 1.297-0.524h18.817c0.876 0 1.69 0.425 2.176 1.136l2.255 3.3c0.32 0.468 0.349 1.067 0.077 1.564s-0.8 0.805-1.377 0.805h-9.698v0.956h4.967c1.317 0 2.501 0.763 3.018 1.945l2.908 6.65 2.548 0.994c1.36 0.531 2.24 1.797 2.24 3.227v6.158c0 0.918-0.766 1.666-1.708 1.666h-2.964c-0.345 2.039-2.164 3.599-4.35 3.599s-4.005-1.561-4.35-3.599h-16.203c-0.345 2.039-2.164 3.599-4.35 3.599s-4.005-1.561-4.35-3.599h-5.921c-0.837 0-1.518-0.664-1.518-1.481v-22.576c0-1.403 1.17-2.544 2.608-2.544zM36.692 30.594c1.637 0 2.969-1.299 2.969-2.896s-1.332-2.896-2.969-2.896c-1.637 0-2.969 1.299-2.969 2.896s1.332 2.896 2.969 2.896zM30.034 26.995h2.307c0.006-0.035 0.013-0.070 0.020-0.105 0.005-0.024 0.009-0.047 0.014-0.071 0.012-0.055 0.025-0.11 0.039-0.164 0.003-0.011 0.005-0.023 0.009-0.034 0.017-0.066 0.036-0.13 0.057-0.195 0.006-0.019 0.013-0.037 0.019-0.056 0.015-0.045 0.031-0.090 0.047-0.134 0.009-0.024 0.018-0.047 0.028-0.071 0.015-0.039 0.030-0.078 0.047-0.116 0.010-0.025 0.022-0.050 0.033-0.075 0.016-0.037 0.032-0.072 0.050-0.108 0.013-0.025 0.025-0.050 0.038-0.075 0.017-0.034 0.036-0.069 0.054-0.103 0.013-0.025 0.027-0.049 0.041-0.074 0.019-0.034 0.039-0.067 0.059-0.101 0.014-0.024 0.029-0.047 0.043-0.071 0.022-0.034 0.044-0.067 0.066-0.101 0.015-0.022 0.029-0.044 0.044-0.065 0.025-0.035 0.051-0.070 0.077-0.105 0.013-0.018 0.026-0.037 0.040-0.055 0.036-0.046 0.072-0.090 0.109-0.135 0.005-0.007 0.010-0.014 0.016-0.020 0.043-0.051 0.087-0.1 0.132-0.148 0.014-0.015 0.028-0.029 0.043-0.044 0.032-0.033 0.063-0.066 0.096-0.099 0.018-0.018 0.038-0.035 0.056-0.053 0.029-0.028 0.059-0.056 0.090-0.084 0.020-0.018 0.041-0.036 0.062-0.054 0.030-0.026 0.060-0.051 0.090-0.077l0.066-0.052c0.031-0.024 0.062-0.048 0.093-0.071 0.022-0.017 0.045-0.034 0.069-0.050 0.032-0.023 0.064-0.045 0.097-0.068 0.023-0.015 0.046-0.031 0.069-0.046 0.034-0.023 0.069-0.044 0.104-0.065 0.022-0.014 0.045-0.028 0.068-0.041 0.038-0.023 0.077-0.044 0.116-0.065 0.020-0.011 0.040-0.023 0.059-0.033 0.056-0.029 0.112-0.057 0.168-0.084 0.005-0.002 0.009-0.004 0.013-0.006 0.061-0.029 0.123-0.056 0.186-0.082 0.020-0.008 0.041-0.016 0.061-0.024 0.043-0.017 0.086-0.034 0.13-0.050 0.025-0.009 0.050-0.017 0.075-0.026 0.040-0.014 0.080-0.027 0.12-0.039 0.027-0.008 0.054-0.016 0.082-0.024 0.039-0.011 0.078-0.023 0.118-0.033 0.028-0.007 0.056-0.015 0.085-0.021 0.039-0.009 0.078-0.018 0.118-0.026 0.029-0.006 0.058-0.012 0.087-0.018 0.040-0.007 0.081-0.015 0.122-0.021 0.029-0.005 0.057-0.010 0.086-0.014 0.042-0.006 0.085-0.011 0.128-0.016 0.027-0.003 0.055-0.007 0.082-0.009 0.047-0.004 0.095-0.008 0.143-0.011 0.024-0.002 0.047-0.004 0.070-0.005 0.072-0.004 0.144-0.006 0.216-0.006s0.144 0.002 0.216 0.006c0.024 0.001 0.047 0.003 0.070 0.005 0.048 0.003 0.096 0.006 0.143 0.011 0.028 0.002 0.055 0.006 0.082 0.009 0.043 0.005 0.086 0.010 0.128 0.016 0.029 0.004 0.058 0.008 0.087 0.014 0.041 0.006 0.081 0.014 0.122 0.021 0.029 0.006 0.058 0.012 0.087 0.018 0.040 0.008 0.079 0.017 0.118 0.026 0.029 0.007 0.057 0.014 0.085 0.021 0.039 0.010 0.078 0.021 0.118 0.033 0.028 0.008 0.055 0.016 0.082 0.024 0.040 0.012 0.080 0.026 0.12 0.039 0.025 0.009 0.050 0.017 0.075 0.026 0.044 0.016 0.087 0.033 0.13 0.050 0.020 0.008 0.041 0.016 0.061 0.024 0.062 0.026 0.125 0.053 0.186 0.082 0.005 0.002 0.009 0.005 0.013 0.006 0.057 0.027 0.112 0.055 0.168 0.084 0.020 0.011 0.039 0.022 0.059 0.033 0.039 0.021 0.078 0.043 0.116 0.065 0.023 0.014 0.045 0.028 0.068 0.041 0.035 0.021 0.070 0.043 0.104 0.065 0.023 0.015 0.046 0.031 0.069 0.046 0.033 0.023 0.065 0.044 0.097 0.068 0.023 0.016 0.046 0.033 0.069 0.050 0.031 0.024 0.062 0.047 0.093 0.071l0.066 0.052c0.031 0.025 0.061 0.051 0.090 0.077 0.021 0.018 0.041 0.036 0.062 0.054 0.031 0.028 0.060 0.056 0.090 0.084 0.018 0.017 0.037 0.035 0.056 0.053 0.033 0.033 0.065 0.066 0.096 0.099 0.014 0.015 0.029 0.029 0.043 0.044 0.045 0.048 0.089 0.098 0.132 0.148 0.006 0.007 0.011 0.014 0.016 0.020 0.037 0.044 0.073 0.089 0.109 0.135 0.014 0.018 0.027 0.037 0.040 0.055 0.026 0.035 0.052 0.070 0.077 0.105 0.015 0.021 0.029 0.043 0.044 0.065 0.022 0.034 0.044 0.067 0.066 0.101 0.014 0.024 0.029 0.047 0.043 0.071 0.020 0.033 0.040 0.067 0.059 0.101 0.014 0.025 0.028 0.049 0.041 0.074 0.018 0.034 0.037 0.069 0.054 0.103 0.013 0.025 0.025 0.050 0.038 0.075 0.017 0.036 0.033 0.071 0.050 0.108 0.011 0.025 0.023 0.049 0.033 0.075 0.017 0.038 0.032 0.077 0.047 0.116 0.010 0.024 0.019 0.047 0.028 0.071 0.016 0.044 0.032 0.089 0.047 0.134 0.006 0.019 0.013 0.038 0.019 0.056 0.020 0.064 0.039 0.129 0.056 0.195 0.003 0.011 0.006 0.023 0.009 0.034 0.014 0.055 0.027 0.109 0.039 0.164 0.005 0.024 0.009 0.047 0.014 0.071 0.007 0.035 0.014 0.069 0.020 0.105h2.963c0.147 0 0.266-0.116 0.266-0.26v-2.946h-1.124v-1.406h1.124v-1.806c0-0.851-0.523-1.606-1.333-1.922l-2.697-1.052h-10.209v9.392zM30.034 16.197h9.257l-2.598-5.939c-0.29-0.662-0.954-1.090-1.692-1.090h-4.967v7.030zM11.789 30.594c1.637 0 2.969-1.299 2.969-2.896s-1.332-2.896-2.969-2.896c-0.051 0-0.102 0.001-0.153 0.004-1.364 0.067-2.488 1.038-2.756 2.309-0.010 0.047-0.019 0.095-0.027 0.143-0.015 0.096-0.025 0.193-0.030 0.291-0.003 0.049-0.004 0.099-0.004 0.149 0 1.597 1.332 2.896 2.969 2.896zM1.441 22.383h1.124v1.406h-1.124v3.131c0 0.041 0.035 0.075 0.077 0.075h5.92c0.006-0.035 0.013-0.069 0.020-0.104 0.005-0.024 0.009-0.048 0.014-0.072 0.012-0.054 0.024-0.107 0.038-0.16 0.003-0.012 0.006-0.025 0.009-0.038 0.017-0.065 0.036-0.129 0.056-0.193 0.006-0.020 0.013-0.039 0.020-0.058 0.015-0.044 0.030-0.089 0.046-0.132 0.009-0.025 0.019-0.048 0.028-0.072 0.015-0.038 0.031-0.077 0.046-0.114 0.011-0.026 0.022-0.051 0.034-0.076 0.016-0.036 0.032-0.071 0.050-0.106 0.012-0.026 0.025-0.051 0.038-0.076 0.017-0.034 0.035-0.068 0.054-0.102 0.014-0.025 0.028-0.049 0.042-0.074 0.020-0.034 0.039-0.067 0.059-0.1 0.014-0.024 0.029-0.048 0.044-0.071 0.021-0.034 0.043-0.067 0.066-0.1 0.014-0.023 0.029-0.045 0.044-0.066 0.025-0.035 0.051-0.070 0.076-0.104 0.014-0.019 0.028-0.038 0.042-0.057 0.035-0.044 0.070-0.088 0.106-0.132 0.006-0.008 0.012-0.016 0.018-0.023 0.043-0.051 0.087-0.1 0.132-0.148 0.014-0.015 0.029-0.030 0.043-0.045 0.032-0.033 0.063-0.066 0.096-0.098 0.018-0.018 0.037-0.035 0.056-0.053 0.029-0.028 0.059-0.056 0.089-0.083 0.020-0.018 0.041-0.036 0.062-0.055 0.029-0.025 0.059-0.051 0.090-0.075 0.022-0.018 0.044-0.036 0.066-0.053 0.030-0.024 0.061-0.047 0.092-0.071 0.022-0.017 0.046-0.034 0.069-0.050 0.032-0.023 0.064-0.045 0.096-0.067 0.024-0.016 0.047-0.031 0.070-0.047 0.034-0.023 0.069-0.044 0.103-0.065 0.023-0.014 0.046-0.028 0.069-0.042 0.038-0.023 0.077-0.044 0.116-0.065 0.020-0.011 0.040-0.023 0.061-0.033 0.055-0.029 0.11-0.057 0.167-0.083 0.005-0.002 0.009-0.005 0.014-0.007 0.061-0.029 0.123-0.056 0.186-0.082 0.020-0.008 0.041-0.016 0.061-0.024 0.043-0.017 0.086-0.034 0.13-0.050 0.025-0.009 0.050-0.017 0.076-0.026 0.039-0.014 0.079-0.027 0.119-0.039 0.027-0.008 0.055-0.016 0.082-0.024 0.039-0.011 0.078-0.023 0.118-0.033 0.028-0.007 0.056-0.015 0.085-0.021 0.039-0.009 0.078-0.018 0.118-0.026 0.029-0.006 0.058-0.012 0.087-0.018 0.040-0.007 0.081-0.015 0.122-0.021 0.029-0.005 0.057-0.010 0.086-0.014 0.042-0.006 0.085-0.011 0.128-0.016 0.027-0.003 0.055-0.007 0.082-0.009 0.047-0.004 0.095-0.008 0.143-0.011 0.024-0.002 0.047-0.004 0.070-0.005 0.072-0.004 0.144-0.006 0.216-0.006s0.144 0.002 0.216 0.006c0.024 0.001 0.047 0.003 0.070 0.005 0.048 0.003 0.096 0.006 0.143 0.011 0.028 0.002 0.055 0.006 0.082 0.009 0.043 0.005 0.086 0.010 0.128 0.016 0.029 0.004 0.058 0.008 0.086 0.014 0.041 0.006 0.081 0.014 0.122 0.021 0.029 0.006 0.058 0.012 0.087 0.018 0.040 0.008 0.079 0.017 0.118 0.026 0.029 0.007 0.057 0.014 0.085 0.021 0.039 0.010 0.078 0.021 0.118 0.033 0.027 0.008 0.055 0.016 0.082 0.024 0.040 0.012 0.080 0.026 0.119 0.039 0.025 0.009 0.051 0.017 0.076 0.026 0.044 0.016 0.086 0.033 0.13 0.050 0.020 0.008 0.041 0.016 0.061 0.024 0.062 0.026 0.124 0.053 0.186 0.082 0.005 0.002 0.010 0.005 0.014 0.007 0.056 0.026 0.112 0.054 0.167 0.083 0.021 0.011 0.040 0.022 0.060 0.033 0.039 0.021 0.078 0.043 0.116 0.065 0.023 0.014 0.046 0.028 0.069 0.042 0.035 0.021 0.069 0.042 0.103 0.065 0.023 0.015 0.046 0.031 0.070 0.047 0.032 0.022 0.065 0.044 0.096 0.067 0.023 0.016 0.046 0.033 0.069 0.050 0.031 0.024 0.062 0.047 0.092 0.071 0.023 0.017 0.044 0.035 0.066 0.053 0.031 0.025 0.061 0.050 0.090 0.076 0.021 0.018 0.042 0.036 0.062 0.054 0.030 0.028 0.060 0.056 0.090 0.084 0.018 0.017 0.037 0.035 0.056 0.053 0.032 0.032 0.065 0.065 0.096 0.098 0.014 0.015 0.029 0.029 0.043 0.044 0.045 0.048 0.089 0.098 0.132 0.148 0.006 0.007 0.012 0.015 0.017 0.021 0.036 0.044 0.073 0.088 0.107 0.134 0.014 0.018 0.028 0.037 0.042 0.055 0.026 0.035 0.052 0.070 0.077 0.105 0.015 0.021 0.029 0.044 0.044 0.066 0.023 0.033 0.044 0.066 0.066 0.1 0.015 0.024 0.029 0.047 0.044 0.071 0.020 0.033 0.040 0.067 0.059 0.101 0.014 0.025 0.028 0.049 0.041 0.074 0.019 0.034 0.037 0.069 0.055 0.103 0.013 0.025 0.025 0.050 0.037 0.075 0.017 0.036 0.034 0.072 0.050 0.108 0.012 0.025 0.023 0.049 0.033 0.075 0.017 0.038 0.032 0.077 0.047 0.116 0.009 0.024 0.018 0.047 0.028 0.071 0.017 0.045 0.032 0.090 0.047 0.135 0.006 0.019 0.013 0.037 0.019 0.055 0.020 0.064 0.039 0.129 0.057 0.195 0.002 0.010 0.005 0.021 0.007 0.031 0.014 0.056 0.028 0.111 0.040 0.168 0.005 0.023 0.009 0.046 0.013 0.069 0.007 0.035 0.014 0.070 0.021 0.106h12.453v-20.893c0-0.388 0.323-0.703 0.721-0.703h10.419c0.018 0 0.073 0 0.107-0.062s0.004-0.106-0.006-0.12l-2.255-3.3c-0.218-0.319-0.583-0.51-0.977-0.51h-18.817c-0.105 0-0.204 0.040-0.278 0.112l-1.192 1.163c-0.346 0.338-0.807 0.524-1.297 0.524h-12.409c-0.643 0-1.167 0.511-1.167 1.138v18.039z"></path>
<path d="M20.116 7.198h4.558c0.921 0 1.67 0.731 1.67 1.629v15.046c0 0.388-0.323 0.703-0.721 0.703h-6.456c-0.398 0-0.721-0.315-0.721-0.703v-15.046c-0.001-0.899 0.748-1.629 1.669-1.629zM19.887 23.17h5.015v-8.267h-5.015v8.267zM19.887 13.497h5.015v-4.669c0-0.123-0.103-0.223-0.229-0.223h-4.558c-0.126 0-0.229 0.1-0.229 0.223v4.669h0.001zM5.536 7.198h8.814c1.019 0 1.848 0.809 1.848 1.802v4.1c0 0.994-0.829 1.802-1.848 1.802h-8.815c-1.019 0-1.848-0.809-1.848-1.802v-4.1c0.001-0.994 0.83-1.802 1.848-1.802zM5.129 13.1c0 0.218 0.182 0.396 0.406 0.396h8.814c0.224 0 0.406-0.178 0.406-0.396v-4.1c0-0.218-0.182-0.396-0.406-0.396h-8.815c-0.224 0-0.406 0.178-0.406 0.396v4.1h0.001z"></path>
</symbol>
<symbol id="comfort" viewBox="0 0 36 32">
<path d="M23.78 3.2c-1.223 0.583-2.546 1.422-4.523 2.859-1.351 0.981-1.508 1.052-2.773 1.308-2.588 0.54-4.608 1.536-6.030 2.987-0.569 0.583-0.782 0.711-1.038 0.654l-0.313-0.085 0.299-0.484c0.555-0.896-0.171-1.095-0.825-0.213l-0.398 0.555-1.351-0.427c-1.963-0.612-1.977-0.612-2.076-0.327-0.057 0.128-0.014 0.313 0.1 0.427 0.213 0.185 1.977 0.825 2.802 0.996 0.356 0.071 0.612 0.284 0.981 0.811 0.327 0.455 0.583 0.668 0.711 0.626 0.114-0.043 0.242-0.085 0.27-0.085 0.128 0 0.057-0.555-0.085-0.64-0.071-0.043-0.142-0.142-0.142-0.228 0-0.284 0.441-0.1 1.138 0.498 0.924 0.796 2.404 1.579 3.499 1.863 0.455 0.114 1.408 0.213 2.133 0.213 3.868 0 7.396-2.233 9.088-5.76 0.612-1.28 1.166-3.172 1.294-4.466 0.085-0.868 0.057-1.052-0.156-1.294-0.412-0.455-1.38-0.384-2.603 0.213zM25.742 4.025c0 0.981-0.54 2.916-1.209 4.295-0.683 1.408-1.934 3.058-2.318 3.058-0.128 0-0.427-0.128-0.668-0.284-0.896-0.597-1.308-0.071-0.498 0.626l0.441 0.356-0.754 0.441c-0.412 0.228-1.266 0.597-1.892 0.811-1.536 0.498-3.812 0.526-5.12 0.057-0.839-0.299-2.347-1.138-2.347-1.294 0-0.043 0.228-0.057 0.498-0.028 0.768 0.085 3.541-0.228 4.836-0.555 1.408-0.356 3.228-1.209 4.38-2.034 1.109-0.782 1.408-1.124 1.294-1.422-0.142-0.37-0.455-0.27-1.38 0.484-2.062 1.678-4.679 2.532-8.135 2.66-2.062 0.085-2.133 0.071-1.92-0.171 0.967-1.209 3.157-2.332 5.504-2.83l0.882-0.185-0.028 0.583c-0.028 0.498 0.014 0.583 0.284 0.626 0.313 0.043 0.356-0.028 0.54-0.939 0.085-0.398 0.341-0.654 1.451-1.479 2.532-1.877 5.12-3.356 5.916-3.385 0.199 0 0.242 0.128 0.242 0.612z"></path>
<path d="M31.289 12.174c-1.692 0.868-3.854 1.138-5.376 0.697-0.811-0.242-1.024-0.199-1.024 0.228 0 0.341 0.427 0.512 1.778 0.725 0.711 0.114 1.294 0.114 1.906 0.014 0.697-0.114 0.839-0.1 0.697 0.028-0.782 0.754-7.908 5.888-8.576 6.201-1.365 0.64-2.517 0.882-3.982 0.811-1.678-0.071-2.503-0.469-4.124-1.963-2.020-1.877-3.527-2.546-6.087-2.688l-1.55-0.085 0.981-0.711c0.526-0.398 1.081-0.825 1.209-0.953 0.284-0.284 0.199-0.683-0.128-0.683-0.128 0-1.138 0.683-2.276 1.508-2.716 2.005-2.702 2.176 0.171 1.778 2.674-0.384 4.935 0.398 7.125 2.418 1.934 1.792 3.499 2.404 5.689 2.219 1.18-0.114 2.93-0.64 3.868-1.18 0.341-0.199 3.015-2.162 5.959-4.352 3.868-2.887 5.305-4.039 5.248-4.196-0.043-0.114-0.085-0.242-0.085-0.27 0-0.156-0.583 0.028-1.422 0.455z"></path>
<path d="M26.951 20.281c-6.656 4.964-7.182 5.248-9.884 5.248-1.38 0-1.564-0.028-2.418-0.441-0.597-0.284-1.365-0.839-2.176-1.593-1.394-1.294-2.944-2.148-4.437-2.46-1.934-0.384-5.348-0.028-5.333 0.569 0 0.043 0.057 0.171 0.128 0.27 0.1 0.156 0.299 0.156 1.195-0.028 2.916-0.612 5.618 0.1 7.609 1.963 1.451 1.351 2.204 1.877 3.186 2.19 1.308 0.427 2.29 0.498 3.598 0.27 2.19-0.398 2.944-0.825 7.865-4.494 2.475-1.849 4.978-3.698 5.547-4.124 1.038-0.768 1.266-1.18 0.668-1.266-0.185-0.014-2.133 1.351-5.547 3.897z"></path>
</symbol>
<symbol id="easy" viewBox="0 0 32 32">
<path d="M11.392 2.752c-0.512 0.672-8.672 15.024-8.672 15.296 0 0.176 0.112 0.368 0.256 0.416s1.728 0.096 3.536 0.096c2.56 0 3.264 0.048 3.216 0.192-0.416 1.104-2.72 10.24-2.64 10.432 0.064 0.144 0.24 0.256 0.416 0.256 0.224 0 0.896-1.024 2.8-4.32 1.376-2.384 2.496-4.464 2.496-4.64 0-0.48-0.48-0.592-0.784-0.208-0.144 0.176-0.832 1.312-1.52 2.512s-1.28 2.16-1.328 2.128c-0.032-0.032 0.336-1.552 0.832-3.36 0.48-1.808 0.88-3.424 0.88-3.6s-0.112-0.368-0.256-0.416c-0.144-0.048-1.648-0.096-3.36-0.096s-3.104-0.048-3.104-0.112c0-0.144 5.968-10.448 6.016-10.4 0.032 0.016-0.384 1.664-0.912 3.632-0.912 3.376-0.944 3.6-0.688 3.792 0.208 0.144 1.024 0.208 2.96 0.208 2.224 0 2.72-0.048 2.928-0.256 0.144-0.128 0.256-0.272 0.256-0.304s-0.112-0.176-0.256-0.304c-0.208-0.208-0.672-0.256-2.56-0.256-1.296 0-2.304-0.064-2.304-0.144s0.608-2.432 1.36-5.232c0.752-2.8 1.328-5.184 1.296-5.296-0.112-0.272-0.64-0.272-0.864-0.016z"></path>
<path d="M17.28 13.904c-1.392 0.432-2.64 1.504-3.232 2.816-0.544 1.2-0.512 3.072 0.064 4.16 0.528 1.008 1.408 1.888 2.352 2.352 0.592 0.304 1.008 0.368 2.176 0.368 1.296 0 1.52-0.048 2.288-0.464l0.848-0.48 0.32 0.336c0.32 0.32 0.32 0.352 0.064 0.752l-0.288 0.432 2.624 2.624c1.696 1.728 2.72 2.64 2.944 2.64 0.416 0 1.84-1.424 1.84-1.856 0-0.304-5.056-5.504-5.36-5.504-0.080 0-0.272 0.128-0.432 0.272-0.288 0.256-0.32 0.256-0.624-0.048l-0.32-0.32 0.496-1.040c0.4-0.864 0.48-1.216 0.48-2.24 0-1.040-0.080-1.36-0.496-2.192-0.576-1.168-1.472-1.984-2.656-2.432-0.88-0.32-2.32-0.4-3.088-0.176zM20.272 15.104c1.856 0.944 2.704 2.928 2.096 4.912-0.592 1.984-3.104 3.2-5.136 2.48-1.824-0.656-3.024-2.864-2.528-4.656 0.352-1.344 1.488-2.56 2.736-2.944 0.736-0.224 2.224-0.112 2.832 0.208zM27.808 27.952l-0.352 0.384-2.128-2.128-2.128-2.112 0.352-0.368 0.352-0.384 2.128 2.128 2.128 2.112-0.352 0.368z"></path>
</symbol>
<symbol id="logoIcon" viewBox="0 0 46 32">
<path d="M4.786 9.206c-0.034 0.144-0.013 0.275 0.064 0.394 0.101 0.17 0.25 0.254 0.445 0.254 0.085 0 0.174-0.025 0.267-0.076 4.311-2.6 9.401-4.819 15.271-6.657 1.838-0.584 3.651-1.093 5.438-1.524 1.423-0.322 2.147-0.487 2.173-0.495 0.144-0.026 0.254-0.097 0.33-0.216 0.085-0.127 0.11-0.259 0.076-0.394-0.025-0.144-0.097-0.254-0.216-0.33-0.119-0.085-0.246-0.11-0.381-0.076-0.026 0.008-0.762 0.174-2.211 0.495-1.813 0.44-3.65 0.957-5.514 1.55-5.955 1.863-11.121 4.116-15.5 6.759-0.119 0.076-0.199 0.182-0.242 0.317zM11.812 25.010c-0.678-0.677-1.495-1.016-2.452-1.016-0.948 0-1.762 0.339-2.439 1.016s-1.016 1.495-1.016 2.452 0.339 1.774 1.016 2.452c0.669 0.678 1.482 1.016 2.439 1.016s1.774-0.339 2.452-1.016c0.678-0.677 1.016-1.495 1.016-2.452s-0.339-1.774-1.016-2.452zM4.011 13.856l-0.368 2.312c-0.127 0.847-0.212 1.499-0.254 1.957-0.017 0.195-0.026 0.351-0.026 0.47v5.247c-0.262 0.229-0.428 0.394-0.495 0.495-0.093 0.152-0.14 0.369-0.14 0.648 0 0.779 0.047 1.313 0.14 1.601 0.127 0.339 0.301 0.567 0.521 0.686 0.119 0.059 0.249 0.089 0.394 0.089h1.092c0.026-1.177 0.461-2.181 1.308-3.011 0.839-0.821 1.851-1.232 3.037-1.232 1.203 0 2.228 0.424 3.075 1.27 0.855 0.847 1.283 1.872 1.283 3.074v0.483h17.049v-0.483c0-1.203 0.424-2.228 1.27-3.074s1.872-1.27 3.075-1.27c1.203 0 2.232 0.424 3.087 1.27 0.847 0.847 1.27 1.872 1.27 3.074v0.483h2.236c0.364 0 0.644-0.102 0.839-0.305 0.169-0.178 0.262-0.424 0.279-0.737l0.025-1.677c0-0.195-0.114-0.326-0.343-0.394-0.22-0.076-0.33-0.195-0.33-0.356 0-0.525-0.093-1.266-0.279-2.223-0.237-1.279-0.534-2.020-0.889-2.223-0.415-0.279-1.139-0.69-2.173-1.232-1.025-0.534-1.77-0.894-2.236-1.080-0.305-0.153-0.478-0.241-0.521-0.267-0.119-0.085-0.297-0.25-0.534-0.495-0.076-0.076-0.495-0.495-1.258-1.258-0.694-0.695-1.249-1.275-1.664-1.741-0.508-0.567-0.995-0.965-1.461-1.194-0.415-0.203-0.889-0.305-1.423-0.305h-23.707c-0.618 0-1.080 0.127-1.385 0.381-0.271 0.229-0.437 0.567-0.496 1.016zM5.854 10.387l0.216 1.334 15.994-0.368c0.813-4.15 1.423-6.932 1.83-8.347-6.835 1.939-12.849 4.4-18.040 7.381zM24.491 2.854c-0.356 1.101-0.877 3.371-1.563 6.81l0.026 0.013 3.799 1.55 0.038 0.026 2.058-0.051-0.966-9.211c-1.194 0.279-2.325 0.567-3.392 0.864zM37.424 25.010c-0.678-0.677-1.495-1.016-2.452-1.016-0.949 0-1.762 0.339-2.439 1.016s-1.016 1.495-1.016 2.452 0.339 1.774 1.016 2.452c0.669 0.678 1.482 1.016 2.439 1.016s1.774-0.339 2.452-1.016c0.678-0.677 1.016-1.495 1.016-2.452s-0.339-1.774-1.016-2.452zM22.827 10.171l-0.241 1.169 2.935-0.063zM34.070 17.54c0.161 0.237 0.19 0.457 0.089 0.661-0.102 0.195-0.271 0.292-0.508 0.292h-5.666c-0.432 0-0.711-0.076-0.838-0.229-0.085-0.11-0.127-0.347-0.127-0.711v-3.532h2.871c0.449 0 0.788 0.059 1.016 0.178 0.254 0.127 0.648 0.462 1.181 1.004 0.864 0.881 1.525 1.66 1.982 2.337zM38.923 22.076c-0.068-0.305-0.11-0.648-0.127-1.029v-0.495c0.313-0.068 0.631-0.026 0.953 0.127 0.644 0.288 0.978 0.962 1.004 2.020 0.017 0.152-0.263 0.169-0.838 0.051-0.584-0.127-0.915-0.351-0.991-0.673zM33.104 27.462c0-0.517 0.182-0.957 0.546-1.321s0.805-0.546 1.321-0.546c0.517 0 0.961 0.182 1.334 0.546 0.364 0.365 0.546 0.805 0.546 1.321 0 0.525-0.182 0.97-0.546 1.334-0.373 0.364-0.817 0.547-1.334 0.547s-0.957-0.182-1.321-0.547c-0.364-0.373-0.546-0.817-0.546-1.334zM14.569 9.143c0.051-0.364 0.224-0.72 0.521-1.067 0.576-0.703 1.457-1.054 2.642-1.054s2.079 0.347 2.681 1.042c0.195 0.22 0.348 0.461 0.458 0.724 0.051 0.135 0.084 0.25 0.101 0.343l0.013 0.038v0.521c0 0.068-0.026 0.123-0.076 0.165-0.051 0.051-0.106 0.076-0.165 0.076h-5.946c-0.068 0-0.123-0.026-0.165-0.076-0.051-0.043-0.076-0.097-0.076-0.165v-0.521zM17.783 18.429v-4.396h7.483v4.446zM7.886 14.059c0.212-0.026 1.071-0.030 2.579-0.013 2.541 0.017 4.434 0.025 5.679 0.025v4.409l-8.69 0.013c-0.262 0-0.478-0.051-0.648-0.152-0.186-0.11-0.28-0.267-0.28-0.47 0-0.915 0.051-1.779 0.153-2.592 0.051-0.415 0.161-0.707 0.33-0.877 0.169-0.178 0.462-0.292 0.877-0.343zM8.039 26.141c0.364-0.364 0.804-0.546 1.321-0.546s0.962 0.182 1.334 0.546c0.364 0.365 0.546 0.805 0.546 1.321 0 0.525-0.182 0.97-0.546 1.334-0.372 0.364-0.817 0.547-1.334 0.547s-0.957-0.182-1.321-0.547c-0.364-0.373-0.546-0.817-0.546-1.334s0.182-0.957 0.546-1.321z"></path>
</symbol>
<symbol id="reliability" viewBox="0 0 32 32">
<path d="M15.281 0.044c-1.75 0.231-3.363 1.387-4.169 2.987-0.338 0.656-0.5 1.325-0.537 2.15-0.037 0.888 0.037 1.425 0.306 2.156 0.356 0.988 1.1 1.956 1.975 2.575 1.713 1.225 3.987 1.331 5.875 0.269 0.631-0.356 1.587-1.287 1.95-1.906 0.275-0.475 0.594-1.275 0.656-1.681 0.056-0.344-0.125-0.594-0.438-0.594-0.281 0-0.431 0.162-0.519 0.556-0.094 0.444-0.387 1.069-0.725 1.537-0.944 1.325-2.631 2.069-4.194 1.85-1.081-0.15-1.912-0.569-2.681-1.344-0.406-0.406-0.563-0.619-0.8-1.1-0.363-0.737-0.481-1.231-0.481-2.037 0-1.275 0.412-2.263 1.338-3.181 0.944-0.938 1.831-1.306 3.131-1.313 0.887 0 1.319 0.1 2.094 0.481 0.425 0.206 0.637 0.369 1.1 0.825 0.475 0.475 0.619 0.663 0.856 1.15 0.156 0.319 0.306 0.675 0.331 0.788 0.056 0.3 0.238 0.475 0.494 0.475 0.244 0 0.469-0.194 0.469-0.406 0-0.175-0.256-0.925-0.438-1.281-1.038-2.038-3.337-3.256-5.594-2.956z"></path>
<path d="M16.969 5c-0.688 0.688-1.281 1.25-1.313 1.25-0.037 0-0.469-0.406-0.969-0.906-0.787-0.787-0.931-0.906-1.106-0.906-0.231 0-0.456 0.237-0.456 0.487 0 0.237 2.194 2.431 2.488 2.487 0.206 0.044 0.238 0.013 1.738-1.481 1.656-1.663 1.688-1.706 1.369-2.025-0.306-0.313-0.381-0.263-1.75 1.094z"></path>
<path d="M24.531 6.744c-0.1 0.063-0.962 0.9-1.913 1.856-1.844 1.856-1.894 1.919-1.75 2.356 0.044 0.119 0.156 0.294 0.256 0.387 0.106 0.1 0.188 0.213 0.188 0.25 0 0.044-0.281 0.35-0.625 0.681-0.788 0.769-1.212 0.988-1.969 1.025-0.425 0.019-0.594-0.006-1.119-0.169-0.488-0.156-0.725-0.194-1.156-0.194-1.050 0-1.719 0.294-2.619 1.15l-0.581 0.563-1.244-1.244-1.25-1.244 0.156-0.162c0.206-0.219 0.3-0.488 0.25-0.75-0.031-0.181-0.338-0.512-1.8-1.988-0.969-0.975-1.838-1.813-1.931-1.862-0.213-0.112-0.513-0.112-0.725 0-0.094 0.050-1.563 1.494-3.275 3.206-2.462 2.469-3.106 3.156-3.144 3.313-0.094 0.456-0.038 0.525 1.681 2.263 0.894 0.906 1.744 1.725 1.875 1.825 0.331 0.25 0.756 0.256 1.038 0.012l0.2-0.163 1.431 1.431c0.787 0.788 1.431 1.456 1.431 1.488s-0.631 0.694-1.394 1.469c-1.206 1.219-1.413 1.456-1.5 1.719-0.125 0.363-0.138 0.869-0.031 1.169 0.2 0.594 0.775 1.075 1.369 1.156l0.294 0.038 0.037 0.294c0.1 0.738 0.85 1.444 1.538 1.444 0.156 0 0.175 0.025 0.244 0.369 0.119 0.6 0.537 1.106 1.1 1.319 0.213 0.081 0.869 0.106 1.069 0.038 0.113-0.038 0.15 0 0.238 0.206 0.131 0.331 0.494 0.731 0.813 0.894 0.137 0.069 0.425 0.144 0.637 0.163 0.537 0.038 0.938-0.106 1.369-0.5l0.344-0.313 0.738 0.712c0.9 0.875 1.156 1.012 1.856 1.019 0.425 0 0.556-0.025 0.856-0.175 0.613-0.3 1.025-0.887 1.094-1.569l0.031-0.331 0.262-0.006c0.919-0.038 1.788-0.9 1.788-1.781v-0.294h0.25c0.875 0 1.731-0.8 1.85-1.725 0.038-0.325 0.038-0.325 0.3-0.363 0.738-0.113 1.281-0.475 1.587-1.063 0.144-0.275 0.169-0.394 0.169-0.85 0-0.781-0.106-0.969-1.144-2.012l-0.85-0.863 1.962-1.969 1.962-1.962 0.269 0.25c0.231 0.212 0.3 0.244 0.569 0.244 0.238 0 0.363-0.038 0.55-0.181 0.131-0.1 0.981-0.919 1.881-1.831 1.381-1.387 1.637-1.681 1.675-1.875 0.075-0.412-0.044-0.6-0.988-1.537-0.756-0.744-0.925-0.887-1.087-0.887-0.231 0-0.456 0.225-0.456 0.469 0 0.144 0.15 0.325 0.781 0.963l0.781 0.794-1.563 1.556-1.563 1.563-5.813-5.813 3.125-3.125 1.488 1.488c1.288 1.281 1.512 1.481 1.675 1.481 0.238 0 0.462-0.225 0.462-0.469 0-0.156-0.244-0.425-1.544-1.738-0.856-0.856-1.625-1.594-1.719-1.644-0.231-0.119-0.544-0.112-0.769 0.031zM8.637 9.856l1.55 1.55-0.787 0.787c-0.675 0.681-0.781 0.813-0.787 0.994-0.006 0.238 0.238 0.5 0.463 0.5 0.069 0 0.313-0.181 0.556-0.419l0.438-0.419 2.488 2.488-0.363 0.387c-0.519 0.556-0.662 0.875-0.662 1.494 0 0.375 0.037 0.569 0.137 0.788 0.188 0.413 0.537 0.775 0.944 0.975 0.294 0.144 0.438 0.175 0.825 0.169 0.713 0 0.925-0.125 1.963-1.144 0.488-0.475 0.969-0.913 1.081-0.969 0.25-0.125 0.744-0.131 0.975-0.006 0.275 0.137 6.281 6.094 6.394 6.337 0.131 0.269 0.087 0.769-0.081 0.994-0.337 0.456-0.95 0.55-1.425 0.212-0.331-0.231-0.563-0.25-0.762-0.063-0.194 0.181-0.181 0.4 0.044 0.731 0.25 0.363 0.294 0.631 0.156 0.981-0.137 0.369-0.444 0.6-0.85 0.637-0.275 0.025-0.35 0-0.675-0.2-0.425-0.262-0.494-0.269-0.719-0.094-0.219 0.175-0.212 0.444 0.025 0.8 0.15 0.219 0.188 0.344 0.188 0.594 0 0.875-0.938 1.3-1.656 0.75-0.269-0.2-0.55-0.2-0.712 0.012-0.181 0.225-0.163 0.406 0.056 0.681 0.35 0.444 0.325 0.956-0.063 1.344-0.269 0.269-0.544 0.35-0.919 0.281-0.194-0.031-0.381-0.181-0.975-0.769l-0.731-0.725 0.275-0.288c0.419-0.431 0.563-0.762 0.563-1.281 0-0.712-0.363-1.306-0.963-1.569-0.181-0.081-0.244-0.137-0.213-0.212 0.019-0.050 0.063-0.25 0.1-0.438 0.131-0.694-0.238-1.419-0.9-1.775-0.356-0.194-0.363-0.194-0.313-0.413 0.069-0.325 0.031-0.819-0.081-1.081-0.131-0.313-0.5-0.712-0.806-0.875-0.162-0.081-0.431-0.144-0.719-0.163l-0.463-0.038-0.081-0.281c-0.113-0.381-0.45-0.762-0.85-0.962-0.375-0.188-1.031-0.225-1.387-0.075l-0.206 0.087-2.987-2.988 1.144-1.144c0.763-0.769 1.138-1.188 1.138-1.281 0-0.225-0.263-0.469-0.5-0.463-0.188 0.006-0.369 0.162-1.669 1.463l-1.456 1.456-3.125-3.125 2.888-2.887c1.594-1.594 2.906-2.894 2.925-2.894s0.725 0.694 1.575 1.544zM26.063 16.344c0 0.038-0.869 0.938-1.938 2l-1.938 1.938-1.438-1.438c-0.788-0.788-1.438-1.45-1.438-1.475 0-0.019 0.419-0.15 0.925-0.294 1.488-0.419 1.575-0.45 1.706-0.581 0.25-0.25 0.038-0.744-0.325-0.744-0.106 0-0.775 0.169-1.494 0.375s-1.369 0.375-1.45 0.375c-0.081 0-0.356-0.1-0.613-0.225-0.387-0.194-0.556-0.238-0.969-0.256-0.837-0.050-1.050 0.063-2.181 1.169-0.994 0.962-1.225 1.113-1.619 1.038-0.475-0.087-0.856-0.531-0.856-0.981 0-0.394 0.231-0.706 1.369-1.831 1.35-1.325 1.619-1.494 2.506-1.525 0.444-0.019 0.613 0.006 1.031 0.144 0.981 0.319 1.906 0.275 2.775-0.137 0.369-0.175 0.6-0.356 1.188-0.925l0.725-0.713 2.019 2.012c1.106 1.106 2.012 2.038 2.012 2.075zM9.981 21.063c0.137 0.081 0.225 0.2 0.275 0.375 0.144 0.481 0.088 0.569-1.644 2.294-1.362 1.35-1.612 1.575-1.819 1.613-0.475 0.087-0.919-0.269-0.919-0.744 0-0.144 0.044-0.331 0.1-0.413 0.15-0.225 2.763-2.856 3.050-3.069 0.294-0.219 0.656-0.244 0.956-0.056zM12.119 22.531c0.1 0.087 0.219 0.256 0.256 0.375 0.144 0.425 0.044 0.563-1.588 2.212-1.844 1.863-2.013 2.006-2.388 2.006-0.494 0-0.869-0.488-0.744-0.981 0.044-0.188 3.213-3.431 3.563-3.65 0.275-0.175 0.662-0.156 0.9 0.038zM13.188 24.8c0.287 0.156 0.463 0.506 0.406 0.813-0.037 0.2-0.256 0.45-1.519 1.719-1.075 1.075-1.537 1.5-1.688 1.538-0.563 0.156-1.131-0.406-0.956-0.95 0.044-0.131 0.55-0.681 1.519-1.644 0.8-0.8 1.512-1.481 1.581-1.519 0.188-0.1 0.412-0.081 0.656 0.044zM14.4 27.375c0.119 0.106 0.238 0.275 0.256 0.375 0.088 0.387-0.012 0.556-0.838 1.394-0.431 0.444-0.863 0.844-0.956 0.894-0.569 0.3-1.256-0.206-1.137-0.837 0.037-0.181 0.188-0.381 0.738-0.944 0.887-0.913 1.1-1.069 1.45-1.069 0.213 0 0.319 0.044 0.488 0.188z"></path>
</symbol>
<symbol id="search" viewBox="0 0 32 32">
<path d="M16.208 6.944c-0.64 0.368-0.736 0.384-1.728 0.208-2.8-0.48-5.696 1.056-6.992 3.696-0.64 1.296-0.8 3.28-0.384 4.704 0.56 1.936 2.272 3.744 4.144 4.4 1.2 0.416 3.424 0.384 4.592-0.080l0.88-0.352 2.96 2.96 2.976 2.96h0.768c0.624 0 0.848-0.080 1.232-0.464s0.464-0.608 0.464-1.232v-0.768l-2.96-2.976-2.976-2.976 0.368-0.8c0.32-0.672 0.368-1.056 0.368-2.72 0.016-1.52 0.064-2.016 0.272-2.336 0.944-1.44 0.496-3.44-0.96-4.256-0.88-0.496-2.128-0.48-3.024 0.032zM18.448 7.584c1.152 0.48 1.632 1.6 1.184 2.704-0.64 1.504-2.768 1.648-3.632 0.224-0.608-0.976-0.224-2.304 0.816-2.864 0.64-0.352 0.944-0.352 1.632-0.064zM14.688 8.304c0.144 0.080 0.176 0.304 0.112 0.688-0.352 1.888 1.52 3.728 3.44 3.408l0.608-0.096 0.112 0.656c0.368 2.128-1.024 4.704-3.088 5.712-1.248 0.608-3.104 0.704-4.384 0.208-1.264-0.464-2.4-1.536-3.040-2.848-0.464-0.944-0.528-1.216-0.528-2.352 0.016-1.040 0.096-1.456 0.432-2.176 0.704-1.552 1.92-2.656 3.376-3.12 0.752-0.224 2.64-0.288 2.96-0.080zM21.408 20.688c1.52 1.52 2.752 2.88 2.752 3.024 0 0.368-0.576 0.816-0.912 0.704-0.16-0.048-1.504-1.312-2.992-2.8l-2.72-2.72 0.48-0.464c0.256-0.256 0.496-0.48 0.544-0.496 0.048 0 1.328 1.232 2.848 2.752z"></path>
<path d="M16.8 8.768c0 0.16 0.080 0.368 0.176 0.464 0.128 0.128 0.096 0.288-0.080 0.576-0.24 0.352-0.24 0.4-0.016 0.592 0.208 0.176 0.304 0.16 0.56-0.080 0.304-0.272 0.336-0.272 0.624-0.016 0.176 0.16 0.4 0.24 0.48 0.176 0.24-0.128 0.224-0.608-0.016-0.848-0.144-0.144-0.144-0.24 0-0.384 0.288-0.288 0.24-0.768-0.096-0.768-0.16 0-0.368 0.080-0.48 0.192-0.144 0.144-0.24 0.144-0.384 0-0.288-0.288-0.768-0.24-0.768 0.096z"></path>
</symbol>
<symbol id="sorted" viewBox="0 0 32 32">
<path d="M9.131 3.214l-0.313 0.213v22.94l-3.243-3.228c-2.105-2.105-3.342-3.228-3.527-3.228-0.37 0-0.768 0.427-0.768 0.796s7.95 8.306 8.32 8.306c0.171 0 1.778-1.493 4.224-3.954 3.2-3.2 3.954-4.011 3.954-4.324 0-0.356-0.441-0.825-0.768-0.825-0.085 0-1.607 1.451-3.385 3.228l-3.243 3.228-0.028-11.492c-0.043-11.179-0.057-11.492-0.313-11.691-0.356-0.256-0.512-0.256-0.91 0.028z"></path>
<path d="M18.133 6.898c-2.204 2.162-4.053 4.053-4.096 4.21-0.114 0.398 0.498 1.024 0.853 0.882 0.142-0.057 1.692-1.493 3.456-3.2l3.2-3.1 0.071 11.463c0.071 11.136 0.085 11.463 0.341 11.662 0.356 0.256 0.526 0.256 0.882 0 0.256-0.199 0.27-0.526 0.341-11.691l0.071-11.477 3.228 3.143c2.034 1.991 3.328 3.157 3.513 3.157 0.37 0 0.725-0.37 0.725-0.768 0-0.242-1.095-1.394-4.039-4.252-2.233-2.176-4.153-3.94-4.281-3.94s-2.048 1.764-4.267 3.911z"></path>
</symbol>
<symbol id="speed" viewBox="0 0 40 32">
<path d="M19.074 2.243c-3.577 0.391-6.896 2.159-9.146 4.849-1.481 1.782-2.494 3.878-2.99 6.218-0.182 0.852-0.189 1.013-0.189 2.69 0 1.684 0.007 1.831 0.189 2.69 0.936 4.402 3.64 7.874 7.63 9.789 4.36 2.103 9.579 1.712 13.631-1.013 1.376-0.922 2.459-1.956 3.438-3.284 0.573-0.769 0.51-1.125-0.203-1.125-0.321 0-0.328 0.007-0.692 0.496-0.796 1.069-2.033 2.236-3.214 3.025-6.421 4.304-15.092 1.949-18.48-5.024-1.747-3.584-1.733-7.574 0.035-11.179 1.998-4.080 5.988-6.763 10.522-7.085 3.584-0.252 6.861 0.922 9.677 3.479l0.643 0.58 0.356-0.035c0.405-0.035 0.671-0.272 0.671-0.601 0-0.231-0.601-3.123-0.699-3.34-0.14-0.328-0.797-0.252-0.88 0.098-0.028 0.098 0.042 0.594 0.147 1.111 0.112 0.517 0.182 0.957 0.154 0.978-0.021 0.021-0.252-0.133-0.51-0.349-1.733-1.474-4.038-2.508-6.421-2.872-0.866-0.133-2.872-0.189-3.668-0.098z"></path>
<path d="M20.297 4.136c-0.021 0.056-0.028 0.629-0.021 1.279l0.021 1.188h0.419v-2.515l-0.196-0.021c-0.112-0.014-0.203 0.014-0.224 0.070z"></path>
<path d="M14.477 5.673c-0.049 0.049-0.084 0.126-0.084 0.182 0 0.112 0.999 1.873 1.153 2.033 0.105 0.112 0.356 0.049 0.412-0.105 0.042-0.112-1.013-2.033-1.174-2.138-0.112-0.077-0.21-0.070-0.307 0.028z"></path>
<path d="M26.103 5.743c-0.475 0.769-1.090 1.914-1.076 1.998 0.028 0.14 0.224 0.258 0.349 0.21 0.112-0.049 1.244-1.97 1.244-2.124 0-0.091-0.203-0.238-0.342-0.238-0.042 0-0.119 0.070-0.175 0.154z"></path>
<path d="M20.164 8.636c-0.098 0.098-0.112 0.58-0.112 4.276v4.171l1.977 1.977c1.090 1.083 2.026 1.97 2.089 1.97 0.056 0 0.189-0.063 0.293-0.147 0.377-0.293 0.335-0.363-1.67-2.369l-1.852-1.852v-3.962c0-4.353 0.014-4.178-0.419-4.178-0.112 0-0.252 0.049-0.307 0.112z"></path>
<path d="M10.257 9.928c-0.070 0.042-0.126 0.14-0.126 0.231 0 0.133 0.168 0.258 0.992 0.734 1.062 0.615 1.279 0.671 1.279 0.328 0-0.189-0.063-0.245-0.573-0.538-1.348-0.776-1.446-0.824-1.572-0.755z"></path>
<path d="M30.456 9.949c-0.713 0.377-1.824 1.055-1.872 1.153-0.084 0.147 0.028 0.356 0.189 0.356 0.119 0 1.782-0.915 1.991-1.104 0.273-0.245 0.021-0.58-0.307-0.405z"></path>
<path d="M8.594 15.825c-0.070 0.084-0.070 0.147-0.014 0.286l0.084 0.168 1.195-0.014c1.055-0.021 1.209-0.035 1.279-0.147 0.056-0.084 0.056-0.154 0-0.245-0.070-0.105-0.224-0.119-1.265-0.14-1.006-0.014-1.202 0-1.279 0.091z"></path>
<path d="M29.918 15.804c-0.049 0.049-0.084 0.133-0.084 0.196 0 0.245 0.147 0.279 1.265 0.279 0.608 0 1.146-0.021 1.209-0.042 0.063-0.028 0.112-0.126 0.112-0.238s-0.049-0.21-0.112-0.238c-0.217-0.084-2.299-0.049-2.39 0.042z"></path>
<path d="M11.109 21.1c-0.741 0.44-0.95 0.594-0.964 0.72-0.014 0.091 0.028 0.203 0.084 0.259 0.098 0.070 0.273-0.007 1.139-0.503 0.971-0.545 1.034-0.594 1.034-0.79 0-0.356-0.252-0.293-1.293 0.314z"></path>
<path d="M28.583 20.667c-0.042 0.077-0.042 0.168 0 0.238 0.035 0.063 0.503 0.37 1.041 0.685 0.824 0.475 0.999 0.552 1.118 0.489 0.175-0.091 0.182-0.293 0.021-0.433-0.224-0.189-1.872-1.104-1.991-1.104-0.070 0-0.154 0.056-0.189 0.126z"></path>
<path d="M15.455 24.224c-0.286 0.419-1.062 1.817-1.062 1.921 0 0.154 0.182 0.286 0.328 0.238 0.105-0.035 1.279-1.956 1.279-2.089 0-0.077-0.224-0.259-0.314-0.259-0.056 0-0.154 0.084-0.231 0.189z"></path>
<path d="M25.139 24.112c-0.070 0.035-0.126 0.105-0.126 0.147 0 0.133 1.132 2.089 1.23 2.131 0.133 0.049 0.377-0.112 0.37-0.245-0.007-0.182-1.139-2.075-1.251-2.089-0.056-0.014-0.161 0.014-0.224 0.056z"></path>
<path d="M20.297 25.446c-0.021 0.056-0.028 0.629-0.021 1.279l0.021 1.188h0.419v-2.515l-0.196-0.021c-0.112-0.014-0.203 0.014-0.224 0.070z"></path>
</symbol>
<symbol id="transmission" viewBox="0 0 32 32">
<path stroke-linejoin="round" stroke-linecap="round" stroke-miterlimit="4" stroke-width="2.4" d="M22.667 14.667h2c0.53 0 1.039-0.211 1.414-0.586s0.586-0.884 0.586-1.414-0.211-1.039-0.586-1.414c-0.375-0.375-0.884-0.586-1.414-0.586h-2v6.667M22.667 22.667v5.333h1.333c0.707 0 1.386-0.281 1.886-0.781s0.781-1.178 0.781-1.886c0-0.707-0.281-1.385-0.781-1.886s-1.178-0.781-1.886-0.781h-1.333zM4 6.667c0 0.707 0.281 1.386 0.781 1.886s1.178 0.781 1.886 0.781c0.707 0 1.386-0.281 1.886-0.781s0.781-1.178 0.781-1.886c0-0.707-0.281-1.386-0.781-1.886s-1.178-0.781-1.886-0.781c-0.707 0-1.386 0.281-1.886 0.781s-0.781 1.178-0.781 1.886z"></path>
<path stroke-linejoin="round" stroke-linecap="round" stroke-miterlimit="4" stroke-width="2.4" d="M6.667 9.333v4c0 0.354 0.14 0.693 0.391 0.943s0.589 0.391 0.943 0.391h4M12 14.667v9.333c0 0.354 0.14 0.693 0.391 0.943s0.589 0.39 0.943 0.39h4M12 14.667h5.333"></path>
</symbol>
<symbol id="bathroom" viewBox="0 0 32 32">
<path fill="#101828" stroke="none" d="M28.87 12.87h-20.522v-1.043c0-1.726-1.404-3.13-3.13-3.13h-1.043v-3.13c0-0.575 0.468-1.043 1.043-1.043s1.043 0.468 1.043 1.043c0 0.576 0.467 1.043 1.043 1.043s1.043-0.467 1.043-1.043c0-1.726-1.404-3.13-3.13-3.13s-3.13 1.404-3.13 3.13c0 0.731 0 6.731 0 7.484-1.215 0.431-2.087 1.591-2.087 2.951s0.873 2.52 2.087 2.951v1.223c0 3.146 2 5.834 4.795 6.86l-0.511 1.021c-0.258 0.515-0.049 1.142 0.467 1.4s1.142 0.049 1.4-0.467l0.76-1.521c0.13 0.007 0.261 0.011 0.393 0.011h13.217c0.132 0 0.263-0.004 0.393-0.011l0.76 1.521c0.258 0.516 0.886 0.724 1.4 0.467 0.515-0.258 0.724-0.884 0.467-1.4l-0.511-1.021c2.795-1.026 4.794-3.714 4.794-6.86v-1.223c1.215-0.431 2.087-1.591 2.087-2.951 0-1.726-1.404-3.13-3.13-3.13zM4.174 10.783h1.043c0.575 0 1.043 0.468 1.043 1.043v1.043h-2.087v-2.087zM27.826 20.174c0 2.877-2.34 5.217-5.217 5.217h-13.217c-2.877 0-5.217-2.34-5.217-5.217v-1.044h23.652v1.044zM28.87 17.043h-25.739c-0.575 0-1.043-0.468-1.043-1.043s0.468-1.043 1.043-1.043c1.201 0 24.528 0 25.739 0 0.575 0 1.044 0.468 1.044 1.043s-0.468 1.043-1.044 1.043z"></path>
</symbol>
<symbol id="beds" viewBox="0 0 32 32">
<path stroke-linejoin="round" stroke-linecap="round" stroke-miterlimit="4" stroke-width="2.24" d="M3 26v-7c0.003-1.060 0.426-2.076 1.175-2.825s1.765-1.172 2.825-1.175h18c1.060 0.003 2.076 0.426 2.825 1.175s1.172 1.765 1.175 2.825v7M24 15h-18v-6.5c0.002-0.662 0.266-1.297 0.734-1.766s1.103-0.732 1.766-0.734h15c0.662 0.002 1.297 0.266 1.766 0.734s0.732 1.103 0.734 1.766v6.5h-2z"></path>
<path stroke-linejoin="round" stroke-linecap="round" stroke-miterlimit="4" stroke-width="2.24" d="M3 26v-0.5c0.001-0.397 0.16-0.778 0.441-1.059s0.662-0.44 1.059-0.441h23c0.397 0.001 0.778 0.16 1.059 0.441s0.44 0.662 0.441 1.059v0.5M7 15v-1c0.002-0.53 0.213-1.038 0.587-1.413s0.883-0.586 1.413-0.587h5c0.53 0.002 1.038 0.213 1.413 0.587s0.586 0.883 0.587 1.413M16 14v1M16 14c0.001-0.53 0.213-1.038 0.587-1.413s0.883-0.586 1.413-0.587h5c0.53 0.002 1.038 0.213 1.413 0.587s0.586 0.883 0.587 1.413v1"></path>
</symbol>
<symbol id="calendar" viewBox="0 0 32 32">
<path stroke-linejoin="round" stroke-linecap="round" stroke-miterlimit="4" stroke-width="2.4" d="M25.333 5.333h-18.667c-1.473 0-2.667 1.194-2.667 2.667v18.667c0 1.473 1.194 2.667 2.667 2.667h18.667c1.473 0 2.667-1.194 2.667-2.667v-18.667c0-1.473-1.194-2.667-2.667-2.667z"></path>
<path stroke-linejoin="round" stroke-linecap="round" stroke-miterlimit="4" stroke-width="2.4" d="M21.333 2.667v5.333"></path>
<path stroke-linejoin="round" stroke-linecap="round" stroke-miterlimit="4" stroke-width="2.4" d="M10.667 2.667v5.333"></path>
<path stroke-linejoin="round" stroke-linecap="round" stroke-miterlimit="4" stroke-width="2.4" d="M4 13.333h24"></path>
</symbol>
<symbol id="camper" viewBox="0 0 46 32">
<path d="M2.608 1.8h12.409c0.105 0 0.203-0.040 0.278-0.112l1.192-1.163c0.346-0.338 0.807-0.524 1.297-0.524h18.817c0.876 0 1.69 0.425 2.176 1.136l2.255 3.3c0.32 0.468 0.349 1.067 0.077 1.564s-0.8 0.805-1.377 0.805h-9.698v0.956h4.967c1.317 0 2.501 0.763 3.018 1.945l2.908 6.65 2.548 0.994c1.36 0.531 2.24 1.797 2.24 3.227v6.158c0 0.918-0.766 1.666-1.708 1.666h-2.964c-0.345 2.039-2.164 3.599-4.35 3.599s-4.005-1.561-4.35-3.599h-16.203c-0.345 2.039-2.164 3.599-4.35 3.599s-4.005-1.561-4.35-3.599h-5.921c-0.837 0-1.518-0.664-1.518-1.481v-22.576c0-1.403 1.17-2.544 2.608-2.544zM36.692 30.594c1.637 0 2.969-1.299 2.969-2.896s-1.332-2.896-2.969-2.896c-1.637 0-2.969 1.299-2.969 2.896s1.332 2.896 2.969 2.896zM30.034 26.995h2.307c0.006-0.035 0.013-0.070 0.020-0.105 0.005-0.024 0.009-0.047 0.014-0.071 0.012-0.055 0.025-0.11 0.039-0.164 0.003-0.011 0.005-0.023 0.009-0.034 0.017-0.066 0.036-0.13 0.057-0.195 0.006-0.019 0.013-0.037 0.019-0.056 0.015-0.045 0.031-0.090 0.047-0.134 0.009-0.024 0.018-0.047 0.028-0.071 0.015-0.039 0.030-0.078 0.047-0.116 0.010-0.025 0.022-0.050 0.033-0.075 0.016-0.037 0.032-0.072 0.050-0.108 0.013-0.025 0.025-0.050 0.038-0.075 0.017-0.034 0.036-0.069 0.054-0.103 0.013-0.025 0.027-0.049 0.041-0.074 0.019-0.034 0.039-0.067 0.059-0.101 0.014-0.024 0.029-0.047 0.043-0.071 0.022-0.034 0.044-0.067 0.066-0.101 0.015-0.022 0.029-0.044 0.044-0.065 0.025-0.035 0.051-0.070 0.077-0.105 0.013-0.018 0.026-0.037 0.040-0.055 0.036-0.046 0.072-0.090 0.109-0.135 0.005-0.007 0.010-0.014 0.016-0.020 0.043-0.051 0.087-0.1 0.132-0.148 0.014-0.015 0.028-0.029 0.043-0.044 0.032-0.033 0.063-0.066 0.096-0.099 0.018-0.018 0.038-0.035 0.056-0.053 0.029-0.028 0.059-0.056 0.090-0.084 0.020-0.018 0.041-0.036 0.062-0.054 0.030-0.026 0.060-0.051 0.090-0.077l0.066-0.052c0.031-0.024 0.062-0.048 0.093-0.071 0.022-0.017 0.045-0.034 0.069-0.050 0.032-0.023 0.064-0.045 0.097-0.068 0.023-0.015 0.046-0.031 0.069-0.046 0.034-0.023 0.069-0.044 0.104-0.065 0.022-0.014 0.045-0.028 0.068-0.041 0.038-0.023 0.077-0.044 0.116-0.065 0.020-0.011 0.040-0.023 0.059-0.033 0.056-0.029 0.112-0.057 0.168-0.084 0.005-0.002 0.009-0.004 0.013-0.006 0.061-0.029 0.123-0.056 0.186-0.082 0.020-0.008 0.041-0.016 0.061-0.024 0.043-0.017 0.086-0.034 0.13-0.050 0.025-0.009 0.050-0.017 0.075-0.026 0.040-0.014 0.080-0.027 0.12-0.039 0.027-0.008 0.054-0.016 0.082-0.024 0.039-0.011 0.078-0.023 0.118-0.033 0.028-0.007 0.056-0.015 0.085-0.021 0.039-0.009 0.078-0.018 0.118-0.026 0.029-0.006 0.058-0.012 0.087-0.018 0.040-0.007 0.081-0.015 0.122-0.021 0.029-0.005 0.057-0.010 0.086-0.014 0.042-0.006 0.085-0.011 0.128-0.016 0.027-0.003 0.055-0.007 0.082-0.009 0.047-0.004 0.095-0.008 0.143-0.011 0.024-0.002 0.047-0.004 0.070-0.005 0.072-0.004 0.144-0.006 0.216-0.006s0.144 0.002 0.216 0.006c0.024 0.001 0.047 0.003 0.070 0.005 0.048 0.003 0.096 0.006 0.143 0.011 0.028 0.002 0.055 0.006 0.082 0.009 0.043 0.005 0.086 0.010 0.128 0.016 0.029 0.004 0.058 0.008 0.087 0.014 0.041 0.006 0.081 0.014 0.122 0.021 0.029 0.006 0.058 0.012 0.087 0.018 0.040 0.008 0.079 0.017 0.118 0.026 0.029 0.007 0.057 0.014 0.085 0.021 0.039 0.010 0.078 0.021 0.118 0.033 0.028 0.008 0.055 0.016 0.082 0.024 0.040 0.012 0.080 0.026 0.12 0.039 0.025 0.009 0.050 0.017 0.075 0.026 0.044 0.016 0.087 0.033 0.13 0.050 0.020 0.008 0.041 0.016 0.061 0.024 0.062 0.026 0.125 0.053 0.186 0.082 0.005 0.002 0.009 0.005 0.013 0.006 0.057 0.027 0.112 0.055 0.168 0.084 0.020 0.011 0.039 0.022 0.059 0.033 0.039 0.021 0.078 0.043 0.116 0.065 0.023 0.014 0.045 0.028 0.068 0.041 0.035 0.021 0.070 0.043 0.104 0.065 0.023 0.015 0.046 0.031 0.069 0.046 0.033 0.023 0.065 0.044 0.097 0.068 0.023 0.016 0.046 0.033 0.069 0.050 0.031 0.024 0.062 0.047 0.093 0.071l0.066 0.052c0.031 0.025 0.061 0.051 0.090 0.077 0.021 0.018 0.041 0.036 0.062 0.054 0.031 0.028 0.060 0.056 0.090 0.084 0.018 0.017 0.037 0.035 0.056 0.053 0.033 0.033 0.065 0.066 0.096 0.099 0.014 0.015 0.029 0.029 0.043 0.044 0.045 0.048 0.089 0.098 0.132 0.148 0.006 0.007 0.011 0.014 0.016 0.020 0.037 0.044 0.073 0.089 0.109 0.135 0.014 0.018 0.027 0.037 0.040 0.055 0.026 0.035 0.052 0.070 0.077 0.105 0.015 0.021 0.029 0.043 0.044 0.065 0.022 0.034 0.044 0.067 0.066 0.101 0.014 0.024 0.029 0.047 0.043 0.071 0.020 0.033 0.040 0.067 0.059 0.101 0.014 0.025 0.028 0.049 0.041 0.074 0.018 0.034 0.037 0.069 0.054 0.103 0.013 0.025 0.025 0.050 0.038 0.075 0.017 0.036 0.033 0.071 0.050 0.108 0.011 0.025 0.023 0.049 0.033 0.075 0.017 0.038 0.032 0.077 0.047 0.116 0.010 0.024 0.019 0.047 0.028 0.071 0.016 0.044 0.032 0.089 0.047 0.134 0.006 0.019 0.013 0.038 0.019 0.056 0.020 0.064 0.039 0.129 0.056 0.195 0.003 0.011 0.006 0.023 0.009 0.034 0.014 0.055 0.027 0.109 0.039 0.164 0.005 0.024 0.009 0.047 0.014 0.071 0.007 0.035 0.014 0.069 0.020 0.105h2.963c0.147 0 0.266-0.116 0.266-0.26v-2.946h-1.124v-1.406h1.124v-1.806c0-0.851-0.523-1.606-1.333-1.922l-2.697-1.052h-10.209v9.392zM30.034 16.197h9.257l-2.598-5.939c-0.29-0.662-0.954-1.090-1.692-1.090h-4.967v7.030zM11.789 30.594c1.637 0 2.969-1.299 2.969-2.896s-1.332-2.896-2.969-2.896c-0.051 0-0.102 0.001-0.153 0.004-1.364 0.067-2.488 1.038-2.756 2.309-0.010 0.047-0.019 0.095-0.027 0.143-0.015 0.096-0.025 0.193-0.030 0.291-0.003 0.049-0.004 0.099-0.004 0.149 0 1.597 1.332 2.896 2.969 2.896zM1.441 22.383h1.124v1.406h-1.124v3.131c0 0.041 0.035 0.075 0.077 0.075h5.92c0.006-0.035 0.013-0.069 0.020-0.104 0.005-0.024 0.009-0.048 0.014-0.072 0.012-0.054 0.024-0.107 0.038-0.16 0.003-0.012 0.006-0.025 0.009-0.038 0.017-0.065 0.036-0.129 0.056-0.193 0.006-0.020 0.013-0.039 0.020-0.058 0.015-0.044 0.030-0.089 0.046-0.132 0.009-0.025 0.019-0.048 0.028-0.072 0.015-0.038 0.031-0.077 0.046-0.114 0.011-0.026 0.022-0.051 0.034-0.076 0.016-0.036 0.032-0.071 0.050-0.106 0.012-0.026 0.025-0.051 0.038-0.076 0.017-0.034 0.035-0.068 0.054-0.102 0.014-0.025 0.028-0.049 0.042-0.074 0.020-0.034 0.039-0.067 0.059-0.1 0.014-0.024 0.029-0.048 0.044-0.071 0.021-0.034 0.043-0.067 0.066-0.1 0.014-0.023 0.029-0.045 0.044-0.066 0.025-0.035 0.051-0.070 0.076-0.104 0.014-0.019 0.028-0.038 0.042-0.057 0.035-0.044 0.070-0.088 0.106-0.132 0.006-0.008 0.012-0.016 0.018-0.023 0.043-0.051 0.087-0.1 0.132-0.148 0.014-0.015 0.029-0.030 0.043-0.045 0.032-0.033 0.063-0.066 0.096-0.098 0.018-0.018 0.037-0.035 0.056-0.053 0.029-0.028 0.059-0.056 0.089-0.083 0.020-0.018 0.041-0.036 0.062-0.055 0.029-0.025 0.059-0.051 0.090-0.075 0.022-0.018 0.044-0.036 0.066-0.053 0.030-0.024 0.061-0.047 0.092-0.071 0.022-0.017 0.046-0.034 0.069-0.050 0.032-0.023 0.064-0.045 0.096-0.067 0.024-0.016 0.047-0.031 0.070-0.047 0.034-0.023 0.069-0.044 0.103-0.065 0.023-0.014 0.046-0.028 0.069-0.042 0.038-0.023 0.077-0.044 0.116-0.065 0.020-0.011 0.040-0.023 0.061-0.033 0.055-0.029 0.11-0.057 0.167-0.083 0.005-0.002 0.009-0.005 0.014-0.007 0.061-0.029 0.123-0.056 0.186-0.082 0.020-0.008 0.041-0.016 0.061-0.024 0.043-0.017 0.086-0.034 0.13-0.050 0.025-0.009 0.050-0.017 0.076-0.026 0.039-0.014 0.079-0.027 0.119-0.039 0.027-0.008 0.055-0.016 0.082-0.024 0.039-0.011 0.078-0.023 0.118-0.033 0.028-0.007 0.056-0.015 0.085-0.021 0.039-0.009 0.078-0.018 0.118-0.026 0.029-0.006 0.058-0.012 0.087-0.018 0.040-0.007 0.081-0.015 0.122-0.021 0.029-0.005 0.057-0.010 0.086-0.014 0.042-0.006 0.085-0.011 0.128-0.016 0.027-0.003 0.055-0.007 0.082-0.009 0.047-0.004 0.095-0.008 0.143-0.011 0.024-0.002 0.047-0.004 0.070-0.005 0.072-0.004 0.144-0.006 0.216-0.006s0.144 0.002 0.216 0.006c0.024 0.001 0.047 0.003 0.070 0.005 0.048 0.003 0.096 0.006 0.143 0.011 0.028 0.002 0.055 0.006 0.082 0.009 0.043 0.005 0.086 0.010 0.128 0.016 0.029 0.004 0.058 0.008 0.086 0.014 0.041 0.006 0.081 0.014 0.122 0.021 0.029 0.006 0.058 0.012 0.087 0.018 0.040 0.008 0.079 0.017 0.118 0.026 0.029 0.007 0.057 0.014 0.085 0.021 0.039 0.010 0.078 0.021 0.118 0.033 0.027 0.008 0.055 0.016 0.082 0.024 0.040 0.012 0.080 0.026 0.119 0.039 0.025 0.009 0.051 0.017 0.076 0.026 0.044 0.016 0.086 0.033 0.13 0.050 0.020 0.008 0.041 0.016 0.061 0.024 0.062 0.026 0.124 0.053 0.186 0.082 0.005 0.002 0.010 0.005 0.014 0.007 0.056 0.026 0.112 0.054 0.167 0.083 0.021 0.011 0.040 0.022 0.060 0.033 0.039 0.021 0.078 0.043 0.116 0.065 0.023 0.014 0.046 0.028 0.069 0.042 0.035 0.021 0.069 0.042 0.103 0.065 0.023 0.015 0.046 0.031 0.070 0.047 0.032 0.022 0.065 0.044 0.096 0.067 0.023 0.016 0.046 0.033 0.069 0.050 0.031 0.024 0.062 0.047 0.092 0.071 0.023 0.017 0.044 0.035 0.066 0.053 0.031 0.025 0.061 0.050 0.090 0.076 0.021 0.018 0.042 0.036 0.062 0.054 0.030 0.028 0.060 0.056 0.090 0.084 0.018 0.017 0.037 0.035 0.056 0.053 0.032 0.032 0.065 0.065 0.096 0.098 0.014 0.015 0.029 0.029 0.043 0.044 0.045 0.048 0.089 0.098 0.132 0.148 0.006 0.007 0.012 0.015 0.017 0.021 0.036 0.044 0.073 0.088 0.107 0.134 0.014 0.018 0.028 0.037 0.042 0.055 0.026 0.035 0.052 0.070 0.077 0.105 0.015 0.021 0.029 0.044 0.044 0.066 0.023 0.033 0.044 0.066 0.066 0.1 0.015 0.024 0.029 0.047 0.044 0.071 0.020 0.033 0.040 0.067 0.059 0.101 0.014 0.025 0.028 0.049 0.041 0.074 0.019 0.034 0.037 0.069 0.055 0.103 0.013 0.025 0.025 0.050 0.037 0.075 0.017 0.036 0.034 0.072 0.050 0.108 0.012 0.025 0.023 0.049 0.033 0.075 0.017 0.038 0.032 0.077 0.047 0.116 0.009 0.024 0.018 0.047 0.028 0.071 0.017 0.045 0.032 0.090 0.047 0.135 0.006 0.019 0.013 0.037 0.019 0.055 0.020 0.064 0.039 0.129 0.057 0.195 0.002 0.010 0.005 0.021 0.007 0.031 0.014 0.056 0.028 0.111 0.040 0.168 0.005 0.023 0.009 0.046 0.013 0.069 0.007 0.035 0.014 0.070 0.021 0.106h12.453v-20.893c0-0.388 0.323-0.703 0.721-0.703h10.419c0.018 0 0.073 0 0.107-0.062s0.004-0.106-0.006-0.12l-2.255-3.3c-0.218-0.319-0.583-0.51-0.977-0.51h-18.817c-0.105 0-0.204 0.040-0.278 0.112l-1.192 1.163c-0.346 0.338-0.807 0.524-1.297 0.524h-12.409c-0.643 0-1.167 0.511-1.167 1.138v18.039z"></path>
<path d="M20.116 7.198h4.558c0.921 0 1.67 0.731 1.67 1.629v15.046c0 0.388-0.323 0.703-0.721 0.703h-6.456c-0.398 0-0.721-0.315-0.721-0.703v-15.046c-0.001-0.899 0.748-1.629 1.669-1.629zM19.887 23.17h5.015v-8.267h-5.015v8.267zM19.887 13.497h5.015v-4.669c0-0.123-0.103-0.223-0.229-0.223h-4.558c-0.126 0-0.229 0.1-0.229 0.223l0.001 4.669z"></path>
</symbol>
<symbol id="children" viewBox="0 0 40 32">
<path d="M7.905 1.088c-1.695 0.417-3.504 1.606-4.566 2.998-1.176 1.568-1.733 3.2-1.733 5.148 0 1.417 0.24 2.492 0.86 3.731 1.429 2.909 4.262 4.655 7.526 4.655 2.593-0.013 4.895-1.1 6.476-3.074 1.265-1.568 1.758-2.896 1.847-4.933 0.063-1.758-0.114-2.593-0.885-4.174-0.734-1.505-2.138-2.909-3.643-3.643-0.594-0.291-1.417-0.62-1.834-0.721-0.936-0.24-3.023-0.228-4.047 0.013zM11.358 2.972c1.088 0.253 2.138 0.809 2.985 1.594 0.392 0.354 0.696 0.683 0.658 0.708-0.089 0.101-1.252-0.544-2.074-1.151-1.138-0.847-1.379-0.809-2.492 0.316-1.632 1.657-3.402 2.707-5.477 3.225-0.67 0.164-1.227 0.278-1.265 0.253-0.101-0.114 0.367-1.315 0.797-2.049 0.582-0.974 1.556-1.859 2.656-2.403 1.391-0.683 2.732-0.847 4.212-0.493zM12.964 6.514c0.86 0.481 2.896 1.328 3.225 1.328 0.228 0 0.278 1.606 0.089 2.568-0.266 1.303-0.746 2.251-1.606 3.162-1.29 1.379-2.871 2.087-4.68 2.1-2.795 0.025-5.375-1.859-6.198-4.515-0.316-1.024-0.316-1.151 0.038-1.214 3.137-0.582 5.325-1.594 7.108-3.276 0.417-0.392 0.822-0.708 0.898-0.721 0.076 0 0.582 0.253 1.126 0.569z"></path>
<path d="M28.079 1.138c-2.681 0.696-4.92 2.517-6.134 4.996-0.898 1.821-0.999 2.416-0.999 6.046l-0.013 3.149 0.304 0.24c0.266 0.215 0.506 0.24 2.315 0.24h2.024l0.519 0.43c1.138 0.911 2.542 1.391 4.136 1.391s2.846-0.417 4.098-1.366l0.582-0.455h2.201c1.973 0 2.226-0.025 2.492-0.24l0.304-0.24v-3.086c0-3.592-0.139-4.402-1.012-6.147-1.265-2.517-3.44-4.262-6.185-4.958-1.328-0.342-3.314-0.329-4.629 0zM32.898 3.44c0.468 0.177 1.113 0.468 1.455 0.67 0.987 0.569 2.201 1.885 2.732 2.972 0.734 1.467 0.86 2.138 0.86 4.642v2.188h-1.606l0.291-0.86c0.544-1.568 0.367-3.681-0.43-5.312-0.607-1.265-2.568-3.061-3.326-3.061-0.417 0-0.86 0.506-1.062 1.227-0.304 1.037-0.594 1.556-1.328 2.365-0.772 0.835-2.062 1.53-3.251 1.733-0.632 0.114-0.974 0.101-1.783-0.063-1.303-0.266-1.366-0.253-1.733 0.114-0.266 0.266-0.316 0.417-0.316 1.126 0 0.696 0.228 1.695 0.569 2.504 0.076 0.202 0.013 0.228-0.506 0.228h-0.594l0.051-2.504c0.063-2.694 0.177-3.251 0.949-4.566 1.062-1.859 3.111-3.326 5.224-3.731 0.177-0.025 0.911-0.038 1.644-0.013 1.024 0.025 1.518 0.114 2.163 0.341zM34.808 9.081c0.215 0.557 0.278 0.987 0.291 1.859 0 1.037-0.038 1.227-0.405 1.96-1.252 2.542-4.073 3.542-6.564 2.315-1.1-0.531-2.277-1.872-2.517-2.858l-0.089-0.341h0.999c1.227 0 2.213-0.24 3.453-0.847 1.176-0.569 2.53-1.897 3.149-3.061l0.43-0.822 0.481 0.544c0.266 0.291 0.607 0.86 0.772 1.252z"></path>
<path d="M8.778 18.087c-2.631 0.354-4.92 1.733-6.451 3.883-1.126 1.568-1.695 3.301-1.733 5.262-0.025 1.088-0.013 1.126 0.329 1.429l0.354 0.304h8.601c9.107 0 9.17 0 9.398-0.569 0.266-0.708-0.076-3.175-0.632-4.541-1.556-3.845-5.793-6.311-9.866-5.768zM12.269 20.364c2.643 0.898 4.718 3.326 5.009 5.881l0.089 0.696h-7.425c-6.969 0-7.412-0.013-7.412-0.228 0-0.114 0.089-0.582 0.19-1.024 0.493-2.062 2.049-3.984 3.984-4.92 0.594-0.291 1.366-0.569 1.708-0.645 1.012-0.202 2.909-0.089 3.858 0.24z"></path>
<path d="M29.369 18.087c-3.782 0.519-6.969 3.289-7.93 6.893-0.228 0.885-0.392 2.795-0.266 3.276 0.177 0.721 0.038 0.708 9.423 0.708h8.601l0.354-0.304c0.342-0.304 0.354-0.341 0.329-1.429-0.051-3.086-1.556-5.843-4.123-7.614-1.758-1.202-4.288-1.809-6.387-1.53zM31.949 20.123c2.669 0.481 5.16 2.871 5.806 5.565 0.101 0.443 0.19 0.911 0.19 1.024 0 0.215-0.43 0.228-7.399 0.228h-7.399v-0.354c0-0.582 0.367-1.796 0.772-2.555 1.581-2.972 4.73-4.503 8.032-3.908z"></path>
</symbol>
<symbol id="close" viewBox="0 0 32 32">
<path stroke-linejoin="round" stroke-linecap="round" stroke-miterlimit="4" stroke-width="2.6667" d="M24 8l-16 16"></path>
<path stroke-linejoin="round" stroke-linecap="round" stroke-miterlimit="4" stroke-width="2.6667" d="M8 8l16 16"></path>
</symbol>
<symbol id="CD" viewBox="0 0 32 32">
<path stroke-linejoin="miter" stroke-linecap="butt" stroke-miterlimit="4" stroke-width="2.4" d="M16 28c6.627 0 12-5.373 12-12s-5.373-12-12-12c-6.627 0-12 5.373-12 12s5.373 12 12 12z"></path>
<path stroke-linejoin="miter" stroke-linecap="round" stroke-miterlimit="4" stroke-width="2.4" d="M8.667 16c0-4.050 3.283-7.333 7.333-7.333"></path>
<path stroke-linejoin="miter" stroke-linecap="butt" stroke-miterlimit="4" stroke-width="2.4" d="M16 19.333c1.841 0 3.333-1.492 3.333-3.333s-1.492-3.333-3.333-3.333c-1.841 0-3.333 1.492-3.333 3.333s1.492 3.333 3.333 3.333z"></path>
</symbol>
<symbol id="airConditioner" viewBox="0 0 32 32">
<path stroke-linejoin="round" stroke-linecap="round" stroke-miterlimit="4" stroke-width="2.4" d="M28.571 1.143h-25.143c-0.606 0-1.188 0.241-1.616 0.669s-0.669 1.010-0.669 1.616v11.429c0 0.606 0.241 1.188 0.669 1.616s1.010 0.669 1.616 0.669h25.143c0.606 0 1.188-0.241 1.616-0.669s0.67-1.010 0.67-1.616v-11.429c0-0.606-0.241-1.188-0.67-1.616s-1.010-0.669-1.616-0.669z"></path>
<path stroke-linejoin="round" stroke-linecap="round" stroke-miterlimit="4" stroke-width="2.4" d="M25.143 17.143v-4.571c0-0.606-0.241-1.188-0.67-1.616s-1.010-0.669-1.616-0.669h-13.714c-0.606 0-1.188 0.241-1.616 0.669s-0.669 1.010-0.669 1.616v4.571M5.714 28.572h0.229c0.849 0 1.663-0.337 2.263-0.937s0.937-1.414 0.937-2.263v-2.514M26.286 28.572h-0.229c-0.849 0-1.663-0.337-2.263-0.937s-0.937-1.414-0.937-2.263v-2.514M16 30.857v-8"></path>
</symbol>
<symbol id="freezer" viewBox="0 0 32 32">
<path stroke-linejoin="round" stroke-linecap="round" stroke-miterlimit="4" stroke-width="2.0800" d="M23.4 3h-14.793c-1.105 0-2 0.895-2 2v20.387c0 1.104 0.895 2 2 2h14.793c1.104 0 2-0.896 2-2v-20.387c0-1.105-0.896-2-2-2z"></path>
<path stroke-linejoin="round" stroke-linecap="round" stroke-miterlimit="4" stroke-width="2.0800" d="M6.607 13.127h18.787M10.313 10.567v-4.040M10.313 19.44v-4.040M8.427 27.387v0.7c0 0.241 0.095 0.472 0.265 0.643s0.4 0.268 0.642 0.27h1.647c0.242 0 0.475-0.096 0.646-0.268s0.268-0.404 0.268-0.646v-0.7M20.1 27.387v0.7c0 0.242 0.096 0.474 0.268 0.646s0.404 0.268 0.646 0.268h1.653c0.242 0 0.475-0.096 0.646-0.268s0.268-0.404 0.268-0.646v-0.7"></path>
</symbol>
<symbol id="gas" viewBox="0 0 32 32">
<path fill="#101828" d="M25.072 13.991c-0.368-0.453-0.816-0.846-1.232-1.239-1.072-0.907-2.288-1.556-3.311-2.508-2.384-2.206-2.912-5.848-1.392-8.644-1.52 0.348-2.848 1.133-3.983 1.995-4.143 3.143-5.775 8.689-3.823 13.449 0.064 0.151 0.128 0.302 0.128 0.499 0 0.332-0.24 0.635-0.56 0.756-0.368 0.151-0.752 0.060-1.056-0.181-0.091-0.071-0.167-0.159-0.224-0.257-1.808-2.161-2.096-5.259-0.88-7.737-2.672 2.055-4.127 5.531-3.919 8.81 0.096 0.756 0.192 1.511 0.464 2.267 0.224 0.907 0.656 1.813 1.136 2.614 1.728 2.614 4.719 4.488 7.935 4.866 3.423 0.408 7.087-0.181 9.71-2.418 2.927-2.508 3.951-6.528 2.448-9.974l-0.208-0.393c-0.336-0.695-1.232-1.904-1.232-1.904zM20.017 23.512c-0.448 0.363-1.184 0.756-1.76 0.907-1.792 0.604-3.583-0.242-4.639-1.239 1.904-0.423 3.039-1.753 3.375-3.098 0.272-1.209-0.24-2.206-0.448-3.37-0.192-1.118-0.16-2.070 0.272-3.113 0.304 0.574 0.624 1.148 1.008 1.602 1.232 1.511 3.167 2.176 3.583 4.231 0.064 0.212 0.096 0.423 0.096 0.65 0.048 1.239-0.528 2.599-1.488 3.43z"></path>
</symbol>
<symbol id="heart" viewBox="0 0 32 32">
<path stroke-linejoin="round" stroke-linecap="round" stroke-miterlimit="4" stroke-width="3.0667" d="M27.787 6.147c-0.681-0.681-1.49-1.222-2.379-1.591s-1.844-0.559-2.807-0.559-1.917 0.19-2.807 0.559c-0.89 0.369-1.699 0.909-2.38 1.591l-1.413 1.413-1.413-1.413c-1.376-1.376-3.241-2.148-5.187-2.148s-3.811 0.773-5.187 2.148c-1.376 1.376-2.148 3.241-2.148 5.187s0.773 3.811 2.148 5.187l11.787 11.787 11.787-11.787c0.681-0.681 1.222-1.49 1.591-2.38s0.559-1.844 0.559-2.807-0.19-1.917-0.559-2.807c-0.369-0.89-0.909-1.699-1.591-2.38z"></path>
</symbol>
<symbol id="hob" viewBox="0 0 32 32">
<path fill="none" stroke="#101828" style="stroke: var(--color1, #101828)" stroke-linejoin="miter" stroke-linecap="butt" stroke-miterlimit="4" stroke-width="2.4" d="M12 6.667h16c0.354 0 0.693 0.14 0.943 0.391s0.391 0.589 0.391 0.943v17.333c0 0.354-0.14 0.693-0.391 0.943s-0.589 0.391-0.943 0.391h-16M12 6.667h-8c-0.354 0-0.693 0.14-0.943 0.391s-0.39 0.589-0.39 0.943v17.333c0 0.354 0.14 0.693 0.39 0.943s0.589 0.391 0.943 0.391h8M12 6.667v20"></path>
<path fill="none" stroke="#101828" style="stroke: var(--color1, #101828)" stroke-linejoin="round" stroke-linecap="round" stroke-miterlimit="4" stroke-width="2.4" d="M7.333 11.333v2.667M24.667 10.667l-8 11.333"></path>
<path d="M8.667 18c0-0.736-0.597-1.333-1.333-1.333s-1.333 0.597-1.333 1.333c0 0.736 0.597 1.333 1.333 1.333s1.333-0.597 1.333-1.333z"></path>
<path d="M8.667 22c0-0.736-0.597-1.333-1.333-1.333s-1.333 0.597-1.333 1.333c0 0.736 0.597 1.333 1.333 1.333s1.333-0.597 1.333-1.333z"></path>
</symbol>
<symbol id="kitchen" viewBox="0 0 32 32">
<path stroke-linejoin="round" stroke-linecap="round" stroke-miterlimit="4" stroke-width="2.4" d="M25.333 20v-16c-6.421 6.125-6.697 11.092-6.667 16h6.667zM25.333 20v8h-1.333v-4M10.667 5.333v22.667M6.667 5.333v4c0 1.061 0.421 2.078 1.172 2.828s1.768 1.172 2.828 1.172c1.061 0 2.078-0.421 2.828-1.172s1.172-1.768 1.172-2.828v-4"></path>
</symbol>
<symbol id="mapPin" viewBox="0 0 29 32">
<path stroke-linejoin="round" stroke-linecap="round" stroke-miterlimit="4" stroke-width="2.4" d="M26.4 13.333c0 9.333-12 17.333-12 17.333s-12-8-12-17.333c0-3.183 1.264-6.235 3.515-8.485s5.303-3.515 8.485-3.515c3.183 0 6.235 1.264 8.485 3.515s3.515 5.303 3.515 8.485z"></path>
<path stroke-linejoin="round" stroke-linecap="round" stroke-miterlimit="4" stroke-width="2.4" d="M14.4 17.333c2.209 0 4-1.791 4-4s-1.791-4-4-4c-2.209 0-4 1.791-4 4s1.791 4 4 4z"></path>
</symbol>
<symbol id="microwave" viewBox="0 0 32 32">
<path stroke-linejoin="round" stroke-linecap="round" stroke-miterlimit="4" stroke-width="2.24" d="M29.714 5.714h-27.429c-0.303 0-0.594 0.12-0.808 0.335s-0.335 0.505-0.335 0.808v18.286c0 0.303 0.12 0.594 0.335 0.808s0.505 0.335 0.808 0.335h27.429c0.303 0 0.594-0.12 0.808-0.335s0.335-0.505 0.335-0.808v-18.286c0-0.303-0.12-0.594-0.335-0.808s-0.505-0.335-0.808-0.335z"></path>
<path stroke-linejoin="round" stroke-linecap="round" stroke-miterlimit="4" stroke-width="2.24" d="M25.143 11.428h1.143M25.143 16h1.143M19.428 10.286h-12.571c-0.303 0-0.594 0.12-0.808 0.335s-0.335 0.505-0.335 0.808v9.143c0 0.303 0.12 0.594 0.335 0.808s0.505 0.335 0.808 0.335h12.571c0.303 0 0.594-0.12 0.808-0.335s0.335-0.505 0.335-0.808v-9.143c0-0.303-0.12-0.594-0.335-0.808s-0.505-0.335-0.808-0.335z"></path>
</symbol>
<symbol id="engine" viewBox="0 0 32 32">
<path d="M26.36 9.64l0.013-0.013-4.96-4.96-1.413 1.413 2.813 2.813c-1.253 0.48-2.147 1.68-2.147 3.107 0 0.438 0.086 0.871 0.254 1.276s0.413 0.772 0.723 1.081c0.625 0.625 1.473 0.976 2.357 0.976 0.48 0 0.92-0.107 1.333-0.28v9.613c0 0.354-0.14 0.693-0.391 0.943s-0.589 0.391-0.943 0.391c-0.354 0-0.693-0.14-0.943-0.391s-0.391-0.589-0.391-0.943v-6c0-0.707-0.281-1.386-0.781-1.886s-1.178-0.781-1.886-0.781h-1.333v-9.333c0-0.707-0.281-1.386-0.781-1.886s-1.178-0.781-1.886-0.781h-8c-0.707 0-1.386 0.281-1.886 0.781s-0.781 1.178-0.781 1.886v21.333h13.333v-10h2v6.667c0 0.884 0.351 1.732 0.976 2.357s1.473 0.976 2.357 0.976c0.438 0 0.871-0.086 1.276-0.254s0.772-0.413 1.081-0.723c0.309-0.309 0.555-0.677 0.723-1.081s0.254-0.838 0.254-1.276v-12.667c0-0.92-0.373-1.76-0.973-2.36zM16 18v7.333h-8v-9.333h8v2zM16 13.333h-8v-6.667h8v6.667zM24 13.333c-0.354 0-0.693-0.14-0.943-0.39s-0.391-0.589-0.391-0.943 0.14-0.693 0.391-0.943c0.25-0.25 0.589-0.39 0.943-0.39s0.693 0.14 0.943 0.39c0.25 0.25 0.391 0.589 0.391 0.943s-0.14 0.693-0.391 0.943c-0.25 0.25-0.589 0.39-0.943 0.39z"></path>
</symbol>
<symbol id="panelTruck" viewBox="0 0 54 32">
<path d="M2.393 1.286c-0.643 0.269-1.136 0.733-1.465 1.331-0.224 0.404-0.254 1.51-0.299 10.916-0.060 11.23-0.030 11.664 0.688 12.516 0.658 0.778 1.376 1.017 3.185 1.017h1.57l0.194 0.733c0.523 2.034 2.826 3.753 5.024 3.753 0.867 0 2.422-0.508 3.080-1.017 1.092-0.837 2.078-2.348 2.078-3.185 0-0.284 0.239-0.284 9.929-0.284h9.929l0.105 0.493c0.284 1.346 1.57 2.841 3.050 3.514 1.136 0.538 3.006 0.568 4.097 0.060 1.48-0.673 2.497-1.765 3.035-3.275l0.269-0.763 1.884-0.060c2.153-0.045 2.961-0.329 3.678-1.271 0.643-0.852 0.807-1.764 0.807-4.606 0-3.993-0.344-5.308-1.735-6.819-0.897-0.942-1.6-1.361-3.23-1.914-2.961-1.002-4.037-1.974-5.473-4.95-1.406-2.931-3.873-4.979-7.207-6.011l-1.121-0.344-15.776-0.030c-13.877-0.030-15.835-0.015-16.299 0.194zM34.617 2.916c1.107 0.239 2.901 1.017 3.514 1.54l0.374 0.314-1.944 0.015c-1.675 0-2.004 0.045-2.437 0.299-0.822 0.493-0.927 0.987-0.927 4.067 0 2.422 0.030 2.781 0.299 3.335 0.164 0.344 0.478 0.703 0.688 0.793 0.254 0.135 2.108 0.179 6.161 0.179h5.787l1.57 0.523c1.75 0.583 2.482 1.077 3.155 2.153 0.239 0.374 0.434 0.733 0.434 0.793s-0.434 0.12-0.972 0.12h-0.972v1.645h2.243v3.14h-3.499c-3.454 0-3.499 0-4.351-0.389-1.136-0.523-2.437-0.628-3.589-0.284-0.493 0.135-1.017 0.344-1.181 0.464-0.254 0.179-2.228 0.209-12.441 0.209h-12.142l-0.867-0.419c-0.763-0.344-1.077-0.404-2.228-0.404s-1.465 0.060-2.228 0.404c-0.867 0.419-0.912 0.419-3.843 0.419h-2.976v-3.125l2.168-0.090 0.090-1.555-2.183-0.090v-13.712l0.359-0.284c0.344-0.269 0.807-0.284 15.626-0.284 12.89 0 15.432 0.045 16.314 0.224zM40.793 7.163c0.254 0.389 0.688 1.211 0.957 1.824 0.284 0.613 0.837 1.495 1.211 1.959 0.643 0.793 0.673 0.867 0.374 0.867-0.194 0-2.153 0.015-4.381 0.015l-4.037-0.015-0.045-2.692-0.030-2.692h5.503l0.449 0.733zM12.441 22.759c0.882 0.254 1.989 1.316 2.273 2.168 0.628 1.824-0.105 3.678-1.779 4.576-0.449 0.239-0.867 0.314-1.645 0.314s-1.196-0.075-1.645-0.314c-2.348-1.256-2.692-4.336-0.658-6.071 0.957-0.822 2.168-1.062 3.454-0.673zM42.871 22.804c1.48 0.613 2.288 1.839 2.288 3.439-0.015 3.783-4.979 5.054-6.789 1.735-1.017-1.884-0.284-4.157 1.63-5.039 0.882-0.419 2.064-0.464 2.871-0.135zM6.43 24.179c-0.165 0.404-0.314 0.837-0.359 0.972-0.075 0.239-0.284 0.269-1.57 0.269-1.794 0-2.093-0.165-2.213-1.241l-0.090-0.703h4.501l-0.269 0.703zM36.89 23.656c-0.045 0.105-0.209 0.553-0.344 0.972l-0.269 0.793h-9.839c-9.256 0-9.854-0.015-9.929-0.269-0.045-0.135-0.194-0.568-0.359-0.972l-0.269-0.703h10.542c8.374 0 10.527 0.045 10.467 0.179zM51.514 23.955c-0.060 0.269-0.299 0.688-0.538 0.942-0.434 0.449-0.464 0.449-2.273 0.493l-1.824 0.045-0.284-0.793c-0.15-0.434-0.314-0.882-0.344-0.987-0.060-0.135 0.523-0.179 2.647-0.179h2.721l-0.105 0.479z"></path>
<path d="M3.993 11.918c-0.060 0.045-0.105 0.419-0.105 0.822v0.718h27.379l-0.045-0.793-0.045-0.778-13.548-0.045c-7.447-0.015-13.578 0.015-13.637 0.075z"></path>
</symbol>
<symbol id="radio" viewBox="0 0 32 32">
<path stroke-linejoin="miter" stroke-linecap="butt" stroke-miterlimit="4" stroke-width="2.0800" d="M2.667 18.667c0-5.028 0-7.543 1.563-9.104 1.561-1.563 4.076-1.563 9.104-1.563h5.333c5.028 0 7.543 0 9.104 1.563 1.563 1.561 1.563 4.076 1.563 9.104s0 7.543-1.563 9.104c-1.561 1.563-4.076 1.563-9.104 1.563h-5.333c-5.028 0-7.543 0-9.104-1.563-1.563-1.561-1.563-4.076-1.563-9.104z"></path>
<path stroke-linejoin="miter" stroke-linecap="butt" stroke-miterlimit="4" stroke-width="2.0800" d="M6.667 14.667c0-0.707 0.281-1.386 0.781-1.886s1.178-0.781 1.886-0.781h13.333c0.707 0 1.386 0.281 1.886 0.781s0.781 1.178 0.781 1.886-0.281 1.386-0.781 1.886c-0.5 0.5-1.178 0.781-1.886 0.781h-13.333c-0.707 0-1.386-0.281-1.886-0.781s-0.781-1.178-0.781-1.886zM12 22.667c0 0.53-0.211 1.039-0.586 1.414s-0.884 0.586-1.414 0.586-1.039-0.211-1.414-0.586c-0.375-0.375-0.586-0.884-0.586-1.414s0.211-1.039 0.586-1.414 0.884-0.586 1.414-0.586c0.53 0 1.039 0.211 1.414 0.586s0.586 0.884 0.586 1.414z"></path>
<path stroke-linejoin="miter" stroke-linecap="round" stroke-miterlimit="4" stroke-width="2.0800" d="M20 15.333v2M17.333 22.667h6.667M8.667 8l11.333-5.333"></path>
</symbol>
<symbol id="route" viewBox="0 0 32 32">
<path d="M6.667 4c-1.473 0-2.667 1.194-2.667 2.667s1.194 2.667 2.667 2.667c1.473 0 2.667-1.194 2.667-2.667s-1.194-2.667-2.667-2.667zM1.333 6.667c0-2.946 2.388-5.333 5.333-5.333s5.333 2.388 5.333 5.333c0 2.946-2.388 5.333-5.333 5.333s-5.333-2.388-5.333-5.333z"></path>
<path d="M25.333 22.667c-1.473 0-2.667 1.194-2.667 2.667s1.194 2.667 2.667 2.667c1.473 0 2.667-1.194 2.667-2.667s-1.194-2.667-2.667-2.667zM20 25.333c0-2.945 2.388-5.333 5.333-5.333s5.333 2.388 5.333 5.333c0 2.946-2.388 5.333-5.333 5.333s-5.333-2.388-5.333-5.333z"></path>
<path d="M13.333 6.667c0-0.736 0.597-1.333 1.333-1.333h8.4c4.13 0 5.62 5.404 1.987 7.429l-15.473 8.804c-1.16 0.644-0.782 2.434 0.686 2.434h7.067c0.736 0 1.333 0.597 1.333 1.333s-0.597 1.333-1.333 1.333h-7.067c-4.13 0-5.619-5.404-1.987-7.429l15.473-8.804c1.16-0.644 0.782-2.434-0.686-2.434h-8.4c-0.736 0-1.333-0.597-1.333-1.333z"></path>
</symbol>
<symbol id="shower" viewBox="0 0 32 32">
<path stroke-linejoin="round" stroke-linecap="round" stroke-miterlimit="4" stroke-width="2.6667" d="M1.778 1.778l4.444 4.444M18.667 6.222c-1.656-1.623-3.885-2.527-6.204-2.515s-4.539 0.938-6.178 2.577c-1.639 1.639-2.566 3.86-2.577 6.178s0.892 4.548 2.515 6.204M21.333 3.556l-17.778 17.778M19.555 24.889v0.018M12.444 23.111v0.018M17.778 17.778v0.018M23.111 12.444v0.018M14.222 30.222v0.018M24.889 19.556v0.018M30.222 14.222v0.018"></path>
</symbol>
<symbol id="star" viewBox="0 0 32 32">
<path fill="#ffc531" style="fill: var(--color1, #ffc531); stroke: var(--color1, #ffc531)" stroke="#ffc531" stroke-linejoin="miter" stroke-linecap="butt" stroke-miterlimit="4" stroke-width="2.4" d="M12.4 9.394l3.6-6.822 3.6 6.822c0.318 0.603 0.899 1.025 1.571 1.141l7.601 1.315-5.376 5.532c-0.475 0.489-0.697 1.171-0.6 1.846l1.098 7.635-6.922-3.404c-0.612-0.301-1.329-0.301-1.941 0l-6.922 3.404 1.098-7.635c0.097-0.675-0.125-1.357-0.6-1.846l-5.376-5.532 7.601-1.315c0.672-0.116 1.252-0.538 1.571-1.141zM29.035 11.579v0zM7.767 27.031c0 0 0 0 0 0h-0z"></path>
</symbol>
<symbol id="starWhite" viewBox="0 0 32 32">
<path fill="#f2f4f7" style="fill: var(--color1, #f2f4f7); stroke: var(--color1, #f2f4f7)" stroke="#f2f4f7" stroke-linejoin="miter" stroke-linecap="butt" stroke-miterlimit="4" stroke-width="2.4" d="M12.4 9.394l3.6-6.822 3.6 6.822c0.318 0.603 0.899 1.025 1.571 1.141l7.601 1.315-5.376 5.532c-0.475 0.489-0.697 1.171-0.6 1.846l1.098 7.635-6.922-3.404c-0.612-0.301-1.329-0.301-1.941 0l-6.922 3.404 1.098-7.635c0.097-0.675-0.125-1.357-0.6-1.846l-5.376-5.532 7.601-1.315c0.672-0.116 1.252-0.538 1.571-1.141z"></path>
</symbol>
<symbol id="toilet" viewBox="0 0 32 32">
<path fill="#101828" stroke="none" d="M24 4c1.939 0 3.269 1.647 4.040 3.313 0.761 1.653 1.224 3.811 1.287 6.145l0.007 0.541v12.667c0 0.18-0.036 0.357-0.106 0.523s-0.173 0.315-0.303 0.439c-0.13 0.125-0.283 0.222-0.451 0.285s-0.347 0.093-0.527 0.086l-0.165-0.019-3.781-0.629-3.781 0.629c-0.16 0.027-0.324 0.024-0.483-0.008l-0.157-0.041-3.579-1.193-3.579 1.193c-0.188 0.063-0.387 0.083-0.583 0.059s-0.385-0.092-0.552-0.197-0.309-0.248-0.414-0.415c-0.105-0.167-0.172-0.356-0.196-0.553l-0.009-0.159v-3.903c-0.708 0.733-1.595 1.236-2.667 1.236-1.939 0-3.269-1.647-4.040-3.313-0.819-1.78-1.293-4.145-1.293-6.687s0.473-4.907 1.293-6.687c0.735-1.592 1.981-3.164 3.78-3.303l0.26-0.011h16zM24 6.667h-12.291c0.12 0.213 0.229 0.429 0.329 0.647 0.821 1.78 1.295 4.145 1.295 6.687v10.817l2.245-0.749c0.274-0.091 0.569-0.091 0.843 0l3.687 1.229 3.673-0.613c0.144-0.024 0.293-0.024 0.437 0l2.448 0.409v-11.093c0-2.245-0.423-4.213-1.049-5.569-0.677-1.471-1.347-1.764-1.617-1.764zM8 6.667c-0.271 0-0.94 0.293-1.617 1.764-0.627 1.356-1.049 3.324-1.049 5.569s0.423 4.213 1.049 5.569c0.677 1.471 1.347 1.764 1.617 1.764s0.94-0.293 1.617-1.764c0.627-1.356 1.049-3.324 1.049-5.569s-0.423-4.213-1.049-5.569c-0.677-1.471-1.347-1.764-1.617-1.764zM8 11.333c0.736 0 1.333 1.193 1.333 2.667s-0.597 2.667-1.333 2.667c-0.736 0-1.333-1.193-1.333-2.667s0.597-2.667 1.333-2.667z"></path>
</symbol>
<symbol id="trash" viewBox="0 0 32 32">
<path stroke-linejoin="round" stroke-linecap="round" stroke-miterlimit="4" stroke-width="2.6" d="M12 4h8"></path>
<path stroke-linejoin="round" stroke-linecap="round" stroke-miterlimit="4" stroke-width="2.6" d="M4 8h24"></path>
<path stroke-linejoin="round" stroke-linecap="round" stroke-miterlimit="4" stroke-width="2.6" d="M6.667 8l0.801 12.018c0.149 2.231 0.223 3.347 0.588 4.243 0.662 1.627 2.004 2.883 3.672 3.435 0.919 0.304 2.037 0.304 4.273 0.304v0c2.236 0 3.354 0 4.273-0.304 1.668-0.552 3.010-1.808 3.672-3.435 0.365-0.896 0.439-2.012 0.588-4.243l0.801-12.018"></path>
</symbol>
<symbol id="TV" viewBox="0 0 28 32">
<path stroke-linejoin="round" stroke-linecap="round" stroke-miterlimit="4" stroke-width="1.92" d="M22.4 26.667h-17.067c-2.364 0-4.267-1.903-4.267-4.267v-10.667c0-2.364 1.903-4.267 4.267-4.267h17.067c2.364 0 4.267 1.903 4.267 4.267v10.667c0 2.364-1.903 4.267-4.267 4.267z"></path>
<path stroke-linejoin="round" stroke-linecap="round" stroke-miterlimit="4" stroke-width="1.92" d="M9.6 30.933h8.533"></path>
<path stroke-linejoin="round" stroke-linecap="round" stroke-miterlimit="4" stroke-width="1.92" d="M13.867 7.467l6.4-6.4"></path>
<path stroke-linejoin="round" stroke-linecap="round" stroke-miterlimit="4" stroke-width="1.92" d="M13.867 7.467l-6.4-6.4"></path>
</symbol>
<symbol id="adults" viewBox="0 0 32 32">
<path d="M9.067 24.133h-4.4c-0.267 0-0.4-0.133-0.533-0.267s-0.267-0.4-0.133-0.667c0.8-2.267 2.8-3.6 5.067-3.6 2.8 0 5.067-2.4 5.067-5.2s-2.267-5.467-5.067-5.467c-2.8 0-5.067 2.4-5.067 5.333 0 1.333 0.533 2.667 1.333 3.6-1.733 0.933-3.067 2.4-3.867 4.4-0.267 0.933-0.133 2.133 0.533 3.067s1.6 1.467 2.667 1.467h4.4c0.8 0 1.333-0.533 1.333-1.333s-0.533-1.333-1.333-1.333zM6.667 14.267c0-1.467 1.067-2.533 2.4-2.533s2.4 1.2 2.4 2.533c0 1.467-1.067 2.533-2.4 2.533s-2.4-1.2-2.4-2.533z"></path>
<path d="M30.533 21.467c-0.933-2.533-2.8-4.4-4.933-5.467 1.2-1.067 1.867-2.667 1.867-4.533 0-3.467-2.667-6.267-5.867-6.267s-5.867 2.8-5.867 6.267c0 1.733 0.667 3.333 1.867 4.533-2.133 1.067-4 2.933-4.933 5.467-0.667 1.2-0.4 2.533 0.267 3.6s1.867 1.6 3.067 1.6h11.067c1.2 0 2.4-0.667 3.067-1.6 0.8-1.067 0.933-2.4 0.4-3.6zM18.267 11.6c0-2 1.467-3.6 3.2-3.6s3.2 1.6 3.2 3.6-1.467 3.6-3.2 3.6c-1.733 0-3.2-1.733-3.2-3.6zM27.867 23.6c-0.133 0.133-0.4 0.533-0.8 0.533h-11.067c-0.533 0-0.8-0.4-0.8-0.533-0.133-0.133-0.4-0.667-0.133-1.2 1.067-2.8 3.733-4.667 6.533-4.667s5.467 1.867 6.533 4.667c0.133 0.533-0.133 1.067-0.267 1.2z"></path>
</symbol>
<symbol id="van" viewBox="0 0 46 32">
<path d="M2.608 1.8h12.409c0.105 0 0.203-0.040 0.278-0.112l1.192-1.163c0.346-0.338 0.807-0.524 1.297-0.524h18.817c0.876 0 1.69 0.425 2.176 1.136l2.255 3.3c0.32 0.468 0.349 1.067 0.077 1.564s-0.8 0.805-1.377 0.805h-9.698v0.956h4.967c1.317 0 2.501 0.763 3.018 1.945l2.908 6.65 2.548 0.994c1.36 0.531 2.24 1.797 2.24 3.227v6.158c0 0.918-0.766 1.666-1.708 1.666h-2.964c-0.345 2.039-2.164 3.599-4.35 3.599s-4.005-1.561-4.35-3.599h-16.203c-0.345 2.039-2.164 3.599-4.35 3.599s-4.005-1.561-4.35-3.599h-5.921c-0.837 0-1.518-0.664-1.518-1.481v-22.576c0-1.403 1.17-2.544 2.608-2.544zM36.692 30.594c1.637 0 2.969-1.299 2.969-2.896s-1.332-2.896-2.969-2.896c-1.637 0-2.969 1.299-2.969 2.896s1.332 2.896 2.969 2.896zM30.034 26.995h2.307c0.006-0.035 0.013-0.070 0.020-0.105 0.005-0.024 0.009-0.047 0.014-0.071 0.012-0.055 0.025-0.11 0.039-0.164 0.003-0.011 0.005-0.023 0.009-0.034 0.017-0.066 0.036-0.13 0.057-0.195 0.006-0.019 0.013-0.037 0.019-0.056 0.015-0.045 0.031-0.090 0.047-0.134 0.009-0.024 0.018-0.047 0.028-0.071 0.015-0.039 0.030-0.078 0.047-0.116 0.010-0.025 0.022-0.050 0.033-0.075 0.016-0.037 0.032-0.072 0.050-0.108 0.013-0.025 0.025-0.050 0.038-0.075 0.017-0.034 0.036-0.069 0.054-0.103 0.013-0.025 0.027-0.049 0.041-0.074 0.019-0.034 0.039-0.067 0.059-0.101 0.014-0.024 0.029-0.047 0.043-0.071 0.022-0.034 0.044-0.067 0.066-0.101 0.015-0.022 0.029-0.044 0.044-0.065 0.025-0.035 0.051-0.070 0.077-0.105 0.013-0.018 0.026-0.037 0.040-0.055 0.036-0.046 0.072-0.090 0.109-0.135 0.005-0.007 0.010-0.014 0.016-0.020 0.043-0.051 0.087-0.1 0.132-0.148 0.014-0.015 0.028-0.029 0.043-0.044 0.032-0.033 0.063-0.066 0.096-0.099 0.018-0.018 0.038-0.035 0.056-0.053 0.029-0.028 0.059-0.056 0.090-0.084 0.020-0.018 0.041-0.036 0.062-0.054 0.030-0.026 0.060-0.051 0.090-0.077l0.066-0.052c0.031-0.024 0.062-0.048 0.093-0.071 0.022-0.017 0.045-0.034 0.069-0.050 0.032-0.023 0.064-0.045 0.097-0.068 0.023-0.015 0.046-0.031 0.069-0.046 0.034-0.023 0.069-0.044 0.104-0.065 0.022-0.014 0.045-0.028 0.068-0.041 0.038-0.023 0.077-0.044 0.116-0.065 0.020-0.011 0.040-0.023 0.059-0.033 0.056-0.029 0.112-0.057 0.168-0.084 0.005-0.002 0.009-0.004 0.013-0.006 0.061-0.029 0.123-0.056 0.186-0.082 0.020-0.008 0.041-0.016 0.061-0.024 0.043-0.017 0.086-0.034 0.13-0.050 0.025-0.009 0.050-0.017 0.075-0.026 0.040-0.014 0.080-0.027 0.12-0.039 0.027-0.008 0.054-0.016 0.082-0.024 0.039-0.011 0.078-0.023 0.118-0.033 0.028-0.007 0.056-0.015 0.085-0.021 0.039-0.009 0.078-0.018 0.118-0.026 0.029-0.006 0.058-0.012 0.087-0.018 0.040-0.007 0.081-0.015 0.122-0.021 0.029-0.005 0.057-0.010 0.086-0.014 0.042-0.006 0.085-0.011 0.128-0.016 0.027-0.003 0.055-0.007 0.082-0.009 0.047-0.004 0.095-0.008 0.143-0.011 0.024-0.002 0.047-0.004 0.070-0.005 0.072-0.004 0.144-0.006 0.216-0.006s0.144 0.002 0.216 0.006c0.024 0.001 0.047 0.003 0.070 0.005 0.048 0.003 0.096 0.006 0.143 0.011 0.028 0.002 0.055 0.006 0.082 0.009 0.043 0.005 0.086 0.010 0.128 0.016 0.029 0.004 0.058 0.008 0.087 0.014 0.041 0.006 0.081 0.014 0.122 0.021 0.029 0.006 0.058 0.012 0.087 0.018 0.040 0.008 0.079 0.017 0.118 0.026 0.029 0.007 0.057 0.014 0.085 0.021 0.039 0.010 0.078 0.021 0.118 0.033 0.028 0.008 0.055 0.016 0.082 0.024 0.040 0.012 0.080 0.026 0.12 0.039 0.025 0.009 0.050 0.017 0.075 0.026 0.044 0.016 0.087 0.033 0.13 0.050 0.020 0.008 0.041 0.016 0.061 0.024 0.062 0.026 0.125 0.053 0.186 0.082 0.005 0.002 0.009 0.005 0.013 0.006 0.057 0.027 0.112 0.055 0.168 0.084 0.020 0.011 0.039 0.022 0.059 0.033 0.039 0.021 0.078 0.043 0.116 0.065 0.023 0.014 0.045 0.028 0.068 0.041 0.035 0.021 0.070 0.043 0.104 0.065 0.023 0.015 0.046 0.031 0.069 0.046 0.033 0.023 0.065 0.044 0.097 0.068 0.023 0.016 0.046 0.033 0.069 0.050 0.031 0.024 0.062 0.047 0.093 0.071l0.066 0.052c0.031 0.025 0.061 0.051 0.090 0.077 0.021 0.018 0.041 0.036 0.062 0.054 0.031 0.028 0.060 0.056 0.090 0.084 0.018 0.017 0.037 0.035 0.056 0.053 0.033 0.033 0.065 0.066 0.096 0.099 0.014 0.015 0.029 0.029 0.043 0.044 0.045 0.048 0.089 0.098 0.132 0.148 0.006 0.007 0.011 0.014 0.016 0.020 0.037 0.044 0.073 0.089 0.109 0.135 0.014 0.018 0.027 0.037 0.040 0.055 0.026 0.035 0.052 0.070 0.077 0.105 0.015 0.021 0.029 0.043 0.044 0.065 0.022 0.034 0.044 0.067 0.066 0.101 0.014 0.024 0.029 0.047 0.043 0.071 0.020 0.033 0.040 0.067 0.059 0.101 0.014 0.025 0.028 0.049 0.041 0.074 0.018 0.034 0.037 0.069 0.054 0.103 0.013 0.025 0.025 0.050 0.038 0.075 0.017 0.036 0.033 0.071 0.050 0.108 0.011 0.025 0.023 0.049 0.033 0.075 0.017 0.038 0.032 0.077 0.047 0.116 0.010 0.024 0.019 0.047 0.028 0.071 0.016 0.044 0.032 0.089 0.047 0.134 0.006 0.019 0.013 0.038 0.019 0.056 0.020 0.064 0.039 0.129 0.056 0.195 0.003 0.011 0.006 0.023 0.009 0.034 0.014 0.055 0.027 0.109 0.039 0.164 0.005 0.024 0.009 0.047 0.014 0.071 0.007 0.035 0.014 0.069 0.020 0.105h2.963c0.147 0 0.266-0.116 0.266-0.26v-2.946h-1.124v-1.406h1.124v-1.806c0-0.851-0.523-1.606-1.333-1.922l-2.697-1.052h-10.209v9.392zM30.034 16.197h9.257l-2.598-5.939c-0.29-0.662-0.954-1.090-1.692-1.090h-4.967v7.030zM11.789 30.594c1.637 0 2.969-1.299 2.969-2.896s-1.332-2.896-2.969-2.896c-0.051 0-0.102 0.001-0.153 0.004-1.364 0.067-2.488 1.038-2.756 2.309-0.010 0.047-0.019 0.095-0.027 0.143-0.015 0.096-0.025 0.193-0.030 0.291-0.003 0.049-0.004 0.099-0.004 0.149 0 1.597 1.332 2.896 2.969 2.896zM1.441 22.383h1.124v1.406h-1.124v3.131c0 0.041 0.035 0.075 0.077 0.075h5.92c0.006-0.035 0.013-0.069 0.020-0.104 0.005-0.024 0.009-0.048 0.014-0.072 0.012-0.054 0.024-0.107 0.038-0.16 0.003-0.012 0.006-0.025 0.009-0.038 0.017-0.065 0.036-0.129 0.056-0.193 0.006-0.020 0.013-0.039 0.020-0.058 0.015-0.044 0.030-0.089 0.046-0.132 0.009-0.025 0.019-0.048 0.028-0.072 0.015-0.038 0.031-0.077 0.046-0.114 0.011-0.026 0.022-0.051 0.034-0.076 0.016-0.036 0.032-0.071 0.050-0.106 0.012-0.026 0.025-0.051 0.038-0.076 0.017-0.034 0.035-0.068 0.054-0.102 0.014-0.025 0.028-0.049 0.042-0.074 0.020-0.034 0.039-0.067 0.059-0.1 0.014-0.024 0.029-0.048 0.044-0.071 0.021-0.034 0.043-0.067 0.066-0.1 0.014-0.023 0.029-0.045 0.044-0.066 0.025-0.035 0.051-0.070 0.076-0.104 0.014-0.019 0.028-0.038 0.042-0.057 0.035-0.044 0.070-0.088 0.106-0.132 0.006-0.008 0.012-0.016 0.018-0.023 0.043-0.051 0.087-0.1 0.132-0.148 0.014-0.015 0.029-0.030 0.043-0.045 0.032-0.033 0.063-0.066 0.096-0.098 0.018-0.018 0.037-0.035 0.056-0.053 0.029-0.028 0.059-0.056 0.089-0.083 0.020-0.018 0.041-0.036 0.062-0.055 0.029-0.025 0.059-0.051 0.090-0.075 0.022-0.018 0.044-0.036 0.066-0.053 0.030-0.024 0.061-0.047 0.092-0.071 0.022-0.017 0.046-0.034 0.069-0.050 0.032-0.023 0.064-0.045 0.096-0.067 0.024-0.016 0.047-0.031 0.070-0.047 0.034-0.023 0.069-0.044 0.103-0.065 0.023-0.014 0.046-0.028 0.069-0.042 0.038-0.023 0.077-0.044 0.116-0.065 0.020-0.011 0.040-0.023 0.061-0.033 0.055-0.029 0.11-0.057 0.167-0.083 0.005-0.002 0.009-0.005 0.014-0.007 0.061-0.029 0.123-0.056 0.186-0.082 0.020-0.008 0.041-0.016 0.061-0.024 0.043-0.017 0.086-0.034 0.13-0.050 0.025-0.009 0.050-0.017 0.076-0.026 0.039-0.014 0.079-0.027 0.119-0.039 0.027-0.008 0.055-0.016 0.082-0.024 0.039-0.011 0.078-0.023 0.118-0.033 0.028-0.007 0.056-0.015 0.085-0.021 0.039-0.009 0.078-0.018 0.118-0.026 0.029-0.006 0.058-0.012 0.087-0.018 0.040-0.007 0.081-0.015 0.122-0.021 0.029-0.005 0.057-0.010 0.086-0.014 0.042-0.006 0.085-0.011 0.128-0.016 0.027-0.003 0.055-0.007 0.082-0.009 0.047-0.004 0.095-0.008 0.143-0.011 0.024-0.002 0.047-0.004 0.070-0.005 0.072-0.004 0.144-0.006 0.216-0.006s0.144 0.002 0.216 0.006c0.024 0.001 0.047 0.003 0.070 0.005 0.048 0.003 0.096 0.006 0.143 0.011 0.028 0.002 0.055 0.006 0.082 0.009 0.043 0.005 0.086 0.010 0.128 0.016 0.029 0.004 0.058 0.008 0.086 0.014 0.041 0.006 0.081 0.014 0.122 0.021 0.029 0.006 0.058 0.012 0.087 0.018 0.040 0.008 0.079 0.017 0.118 0.026 0.029 0.007 0.057 0.014 0.085 0.021 0.039 0.010 0.078 0.021 0.118 0.033 0.027 0.008 0.055 0.016 0.082 0.024 0.040 0.012 0.080 0.026 0.119 0.039 0.025 0.009 0.051 0.017 0.076 0.026 0.044 0.016 0.086 0.033 0.13 0.050 0.020 0.008 0.041 0.016 0.061 0.024 0.062 0.026 0.124 0.053 0.186 0.082 0.005 0.002 0.010 0.005 0.014 0.007 0.056 0.026 0.112 0.054 0.167 0.083 0.021 0.011 0.040 0.022 0.060 0.033 0.039 0.021 0.078 0.043 0.116 0.065 0.023 0.014 0.046 0.028 0.069 0.042 0.035 0.021 0.069 0.042 0.103 0.065 0.023 0.015 0.046 0.031 0.070 0.047 0.032 0.022 0.065 0.044 0.096 0.067 0.023 0.016 0.046 0.033 0.069 0.050 0.031 0.024 0.062 0.047 0.092 0.071 0.023 0.017 0.044 0.035 0.066 0.053 0.031 0.025 0.061 0.050 0.090 0.076 0.021 0.018 0.042 0.036 0.062 0.054 0.030 0.028 0.060 0.056 0.090 0.084 0.018 0.017 0.037 0.035 0.056 0.053 0.032 0.032 0.065 0.065 0.096 0.098 0.014 0.015 0.029 0.029 0.043 0.044 0.045 0.048 0.089 0.098 0.132 0.148 0.006 0.007 0.012 0.015 0.017 0.021 0.036 0.044 0.073 0.088 0.107 0.134 0.014 0.018 0.028 0.037 0.042 0.055 0.026 0.035 0.052 0.070 0.077 0.105 0.015 0.021 0.029 0.044 0.044 0.066 0.023 0.033 0.044 0.066 0.066 0.1 0.015 0.024 0.029 0.047 0.044 0.071 0.020 0.033 0.040 0.067 0.059 0.101 0.014 0.025 0.028 0.049 0.041 0.074 0.019 0.034 0.037 0.069 0.055 0.103 0.013 0.025 0.025 0.050 0.037 0.075 0.017 0.036 0.034 0.072 0.050 0.108 0.012 0.025 0.023 0.049 0.033 0.075 0.017 0.038 0.032 0.077 0.047 0.116 0.009 0.024 0.018 0.047 0.028 0.071 0.017 0.045 0.032 0.090 0.047 0.135 0.006 0.019 0.013 0.037 0.019 0.055 0.020 0.064 0.039 0.129 0.057 0.195 0.002 0.010 0.005 0.021 0.007 0.031 0.014 0.056 0.028 0.111 0.040 0.168 0.005 0.023 0.009 0.046 0.013 0.069 0.007 0.035 0.014 0.070 0.021 0.106h12.453v-20.893c0-0.388 0.323-0.703 0.721-0.703h10.419c0.018 0 0.073 0 0.107-0.062s0.004-0.106-0.006-0.12l-2.255-3.3c-0.218-0.319-0.583-0.51-0.977-0.51h-18.817c-0.105 0-0.204 0.040-0.278 0.112l-1.192 1.163c-0.346 0.338-0.807 0.524-1.297 0.524h-12.409c-0.643 0-1.167 0.511-1.167 1.138v18.039z"></path>
<path d="M5.536 7.198h8.814c1.019 0 1.848 0.809 1.848 1.802v4.1c0 0.994-0.829 1.802-1.848 1.802h-8.815c-1.019 0-1.848-0.809-1.848-1.802v-4.1c0.001-0.994 0.83-1.802 1.848-1.802zM5.129 13.1c0 0.218 0.182 0.396 0.406 0.396h8.814c0.224 0 0.406-0.178 0.406-0.396v-4.1c0-0.218-0.182-0.396-0.406-0.396h-8.815c-0.224 0-0.406 0.178-0.406 0.396l0.001 4.1z"></path>
</symbol>
<symbol id="water" viewBox="0 0 32 32">
<path stroke-linejoin="miter" stroke-linecap="butt" stroke-miterlimit="10" stroke-width="2.4" d="M25 20c0 5.523-3.477 9-9 9s-9-3.477-9-9c0-5.927 6.452-13.928 8.431-16.242 0.070-0.082 0.158-0.148 0.256-0.194s0.205-0.069 0.314-0.069c0.108 0 0.215 0.023 0.314 0.069s0.186 0.111 0.256 0.194c1.978 2.314 8.43 10.316 8.43 16.242z"></path>
<path stroke-linejoin="round" stroke-linecap="round" stroke-miterlimit="4" stroke-width="2.4" d="M21.5 20.5c0 1.193-0.474 2.338-1.318 3.182s-1.988 1.318-3.182 1.318"></path>
</symbol>
</defs>
</svg>
