<?xml version="1.0" standalone="no"?>
<!DOCTYPE svg PUBLIC "-//W3C//DTD SVG 20010904//EN"
 "http://www.w3.org/TR/2001/REC-SVG-20010904/DTD/svg10.dtd">
<svg version="1.0" xmlns="http://www.w3.org/2000/svg"
 width="320.000000pt" height="253.000000pt" viewBox="0 0 320.000000 253.000000"
 preserveAspectRatio="xMidYMid meet">

<g transform="translate(0.000000,253.000000) scale(0.100000,-0.100000)"
fill="#000000" stroke="none">
<path d="M625 2444 c-134 -33 -277 -127 -361 -237 -93 -124 -137 -253 -137
-407 0 -112 19 -197 68 -295 113 -230 337 -368 595 -368 205 1 387 87 512 243
100 124 139 229 146 390 5 139 -9 205 -70 330 -58 119 -169 230 -288 288 -47
23 -112 49 -145 57 -74 19 -239 18 -320 -1z m273 -149 c86 -20 169 -64 236
-126 31 -28 55 -54 52 -56 -7 -8 -99 43 -164 91 -90 67 -109 64 -197 -25 -129
-131 -269 -214 -433 -255 -53 -13 -97 -22 -100 -20 -8 9 29 104 63 162 46 77
123 147 210 190 110 54 216 67 333 39z m127 -280 c68 -38 229 -105 255 -105
18 0 22 -127 7 -203 -21 -103 -59 -178 -127 -250 -102 -109 -227 -165 -370
-166 -221 -2 -425 147 -490 357 -25 81 -25 91 3 96 248 46 421 126 562 259 33
31 65 56 71 57 6 0 46 -20 89 -45z"/>
<path d="M2220 2440 c-212 -55 -389 -199 -485 -395 -71 -144 -79 -191 -79
-478 l-1 -249 24 -19 c21 -17 40 -19 183 -19 l160 0 41 -34 c90 -72 201 -110
327 -110 126 0 225 33 324 108 l46 36 174 0 c156 0 176 2 197 19 l24 19 0 244
c0 284 -11 348 -80 486 -100 199 -272 337 -489 392 -105 27 -262 26 -366 0z
m381 -182 c37 -14 88 -37 115 -53 78 -45 174 -149 216 -235 58 -116 68 -169
68 -367 l0 -173 -63 0 -64 0 23 68 c43 124 29 291 -34 420 -48 100 -203 242
-263 242 -33 0 -68 -40 -84 -97 -24 -82 -47 -123 -105 -187 -61 -66 -163 -121
-257 -137 -50 -9 -77 -8 -141 5 -103 21 -108 20 -137 -9 -21 -21 -25 -33 -25
-89 0 -55 18 -134 45 -198 6 -16 1 -18 -40 -18 l-47 0 4 198 c5 213 14 257 75
361 84 147 246 263 413 295 14 2 72 3 130 1 81 -2 120 -9 171 -27z m151 -446
c17 -44 22 -78 23 -147 0 -82 -3 -97 -32 -155 -99 -201 -322 -280 -519 -183
-87 42 -180 148 -199 226 l-7 27 79 0 c97 0 175 19 273 67 93 45 200 150 249
242 l34 65 38 -43 c21 -23 48 -68 61 -99z"/>
<path d="M694 1100 c-208 -28 -389 -137 -510 -307 -89 -124 -134 -261 -137
-416 -2 -86 -1 -89 26 -113 l28 -24 680 0 c720 0 725 0 743 45 21 56 -6 251
-50 359 -123 304 -458 499 -780 456z m276 -180 c209 -71 373 -263 396 -465 l7
-55 -587 0 c-551 0 -586 1 -586 18 0 9 7 46 15 81 39 163 162 315 315 389 47
23 108 45 135 51 80 16 230 7 305 -19z"/>
<path d="M2322 1100 c-299 -41 -551 -260 -627 -545 -18 -70 -31 -221 -21 -259
14 -57 3 -56 745 -56 l680 0 28 24 c27 24 28 27 26 113 -4 244 -123 462 -326
602 -139 95 -339 143 -505 121z m204 -161 c211 -38 408 -227 459 -440 8 -35
15 -72 15 -81 0 -17 -34 -18 -585 -18 l-585 0 0 28 c0 46 29 142 61 202 125
235 374 356 635 309z"/>
</g>
</svg>
