<?xml version="1.0" standalone="no"?>
<!DOCTYPE svg PUBLIC "-//W3C//DTD SVG 20010904//EN"
 "http://www.w3.org/TR/2001/REC-SVG-20010904/DTD/svg10.dtd">
<svg version="1.0" xmlns="http://www.w3.org/2000/svg"
 width="252.000000pt" height="225.000000pt" viewBox="0 0 252.000000 225.000000"
 preserveAspectRatio="xMidYMid meet">

<g transform="translate(0.000000,225.000000) scale(0.100000,-0.100000)"
fill="#000000" stroke="none">
<path d="M1672 2025 c-86 -41 -179 -100 -318 -201 -95 -69 -106 -74 -195 -92
-182 -38 -324 -108 -424 -210 -40 -41 -55 -50 -73 -46 l-22 6 21 34 c39 63
-12 77 -58 15 l-28 -39 -95 30 c-138 43 -139 43 -146 23 -4 -9 -1 -22 7 -30
15 -13 139 -58 197 -70 25 -5 43 -20 69 -57 23 -32 41 -47 50 -44 8 3 17 6 19
6 9 0 4 39 -6 45 -5 3 -10 10 -10 16 0 20 31 7 80 -35 65 -56 169 -111 246
-131 32 -8 99 -15 150 -15 272 0 520 157 639 405 43 90 82 223 91 314 6 61 4
74 -11 91 -29 32 -97 27 -183 -15z m138 -58 c0 -69 -38 -205 -85 -302 -48 -99
-136 -215 -163 -215 -9 0 -30 9 -47 20 -63 42 -92 5 -35 -44 l31 -25 -53 -31
c-29 -16 -89 -42 -133 -57 -108 -35 -268 -37 -360 -4 -59 21 -165 80 -165 91
0 3 16 4 35 2 54 -6 249 16 340 39 99 25 227 85 308 143 78 55 99 79 91 100
-10 26 -32 19 -97 -34 -145 -118 -329 -178 -572 -187 -145 -6 -150 -5 -135 12
68 85 222 164 387 199 l62 13 -2 -41 c-2 -35 1 -41 20 -44 22 -3 25 2 38 66 6
28 24 46 102 104 178 132 360 236 416 238 14 0 17 -9 17 -43z"/>
<path d="M2200 1394 c-119 -61 -271 -80 -378 -49 -57 17 -72 14 -72 -16 0 -24
30 -36 125 -51 50 -8 91 -8 134 -1 49 8 59 7 49 -2 -55 -53 -556 -414 -603
-436 -96 -45 -177 -62 -280 -57 -118 5 -176 33 -290 138 -142 132 -248 179
-428 189 l-109 6 69 50 c37 28 76 58 85 67 20 20 14 48 -9 48 -9 0 -80 -48
-160 -106 -191 -141 -190 -153 12 -125 188 27 347 -28 501 -170 136 -126 246
-169 400 -156 83 8 206 45 272 83 24 14 212 152 419 306 272 203 373 284 369
295 -3 8 -6 17 -6 19 0 11 -41 -2 -100 -32z"/>
<path d="M1895 824 c-468 -349 -505 -369 -695 -369 -97 0 -110 2 -170 31 -42
20 -96 59 -153 112 -98 91 -207 151 -312 173 -136 27 -376 2 -375 -40 0 -3 4
-12 9 -19 7 -11 21 -11 84 2 205 43 395 -7 535 -138 102 -95 155 -132 224
-154 92 -30 161 -35 253 -19 154 28 207 58 553 316 174 130 350 260 390 290
73 54 89 83 47 89 -13 1 -150 -95 -390 -274z"/>
</g>
</svg>
