<?xml version="1.0" standalone="no"?>
<!DOCTYPE svg PUBLIC "-//W3C//DTD SVG 20010904//EN"
 "http://www.w3.org/TR/2001/REC-SVG-20010904/DTD/svg10.dtd">
<svg version="1.0" xmlns="http://www.w3.org/2000/svg"
 width="200.000000pt" height="200.000000pt" viewBox="0 0 200.000000 200.000000"
 preserveAspectRatio="xMidYMid meet">

<g transform="translate(0.000000,200.000000) scale(0.100000,-0.100000)"
fill="#000000" stroke="none">
<path d="M712 1828 c-32 -42 -542 -939 -542 -956 0 -11 7 -23 16 -26 9 -3 108
-6 221 -6 160 0 204 -3 201 -12 -26 -69 -170 -640 -165 -652 4 -9 15 -16 26
-16 14 0 56 64 175 270 86 149 156 279 156 290 0 30 -30 37 -49 13 -9 -11 -52
-82 -95 -157 -43 -75 -80 -135 -83 -133 -2 2 21 97 52 210 30 113 55 214 55
225 0 11 -7 23 -16 26 -9 3 -103 6 -210 6 -107 0 -194 3 -194 7 0 9 373 653
376 650 2 -1 -24 -104 -57 -227 -57 -211 -59 -225 -43 -237 13 -9 64 -13 185
-13 139 0 170 3 183 16 9 8 16 17 16 19 0 2 -7 11 -16 19 -13 13 -42 16 -160
16 -81 0 -144 4 -144 9 0 5 38 152 85 327 47 175 83 324 81 331 -7 17 -40 17
-54 1z"/>
<path d="M1080 1131 c-87 -27 -165 -94 -202 -176 -34 -75 -32 -192 4 -260 33
-63 88 -118 147 -147 37 -19 63 -23 136 -23 81 0 95 3 143 29 l53 30 20 -21
c20 -20 20 -22 4 -47 l-18 -27 164 -164 c106 -108 170 -165 184 -165 26 0 115
89 115 116 0 19 -316 344 -335 344 -5 0 -17 -8 -27 -17 -18 -16 -20 -16 -39 3
l-20 20 31 65 c25 54 30 76 30 140 0 65 -5 85 -31 137 -36 73 -92 124 -166
152 -55 20 -145 25 -193 11z m187 -75 c116 -59 169 -183 131 -307 -37 -124
-194 -200 -321 -155 -114 41 -189 179 -158 291 22 84 93 160 171 184 46 14
139 7 177 -13z m471 -803 l-22 -24 -133 133 -133 132 22 23 22 24 133 -133
133 -132 -22 -23z"/>
</g>
</svg>
