<?xml version="1.0" encoding="UTF-8" standalone="no"?>
<svg
   xmlns:dc="http://purl.org/dc/elements/1.1/"
   xmlns:cc="http://creativecommons.org/ns#"
   xmlns:rdf="http://www.w3.org/1999/02/22-rdf-syntax-ns#"
   xmlns:svg="http://www.w3.org/2000/svg"
   xmlns="http://www.w3.org/2000/svg"
   version="1.1"
   xml:space="preserve"
   width="386"
   height="266"
   style="clip-rule:evenodd;fill-rule:evenodd;image-rendering:optimizeQuality;shape-rendering:geometricPrecision;text-rendering:geometricPrecision"
   viewBox="0 0 386 266"
   id="svg12"><metadata
   id="metadata16"><rdf:RDF><cc:Work
       rdf:about=""><dc:format>image/svg+xml</dc:format><dc:type
         rdf:resource="http://purl.org/dc/dcmitype/StillImage" /><dc:title></dc:title></cc:Work></rdf:RDF></metadata> <defs
   id="defs4"> <style
   type="text/css"
   id="style2"> <![CDATA[ .str0 {stroke:#2B2A29;stroke-width:13.45;stroke-miterlimit:22.9256} .fil1 {fill:none} .fil0 {fill:#2B2A29} ]]> </style> </defs> <g
   transform="matrix(0.17533329,0,0,0.17533329,0.17407992,5.779091e-4)"
   id="g3725"><path
     class="fil0"
     d="m 1949.93,460.25 c 1.61,6.82 0.62,13.05 -3.01,18.67 -4.79,8.04 -11.83,12.05 -21.08,12.05 -4.01,0 -8.24,-1.2 -12.66,-3.61 C 1708.82,364.09 1467.47,258.87 1189.2,171.74 1102.07,144.04 1016.13,119.94 931.41,99.47 863.95,84.21 829.62,76.38 828.41,75.98 c -6.82,-1.21 -12.05,-4.61 -15.66,-10.24 -4.01,-6.02 -5.23,-12.26 -3.61,-18.67 1.2,-6.83 4.6,-12.05 10.23,-15.66 5.63,-4.01 11.65,-5.22 18.07,-3.62 1.21,0.4 36.14,8.23 104.8,23.49 85.93,20.87 173.06,45.38 261.41,73.48 282.31,88.34 527.23,195.15 734.83,320.45 5.65,3.6 9.45,8.63 11.45,15.04 z m -333.08,749.28 c 32.14,-32.12 70.87,-48.18 116.25,-48.18 44.95,0 83.53,16.06 115.65,48.18 32.13,32.13 48.18,70.87 48.18,116.25 0,45.38 -16.05,84.12 -48.18,116.24 -31.74,32.13 -70.26,48.19 -115.65,48.19 -45.39,0 -84.11,-16.06 -116.25,-48.19 -32.12,-32.12 -48.18,-70.86 -48.18,-116.24 0,-45.38 16.06,-84.12 48.18,-116.25 z m 369.83,-528.83 17.45,109.62 c 6.02,40.15 10.05,71.07 12.05,92.76 0.81,9.23 1.21,16.66 1.21,22.28 v 248.76 c 12.44,10.84 20.29,18.67 23.49,23.49 4.41,7.23 6.62,17.47 6.62,30.72 0,36.94 -2.21,62.24 -6.62,75.89 -6.02,16.06 -14.28,26.9 -24.71,32.52 -5.64,2.81 -11.82,4.22 -18.67,4.22 h -51.79 c -1.21,-55.81 -21.87,-103.39 -62.03,-142.75 -39.77,-38.94 -87.74,-58.42 -143.96,-58.42 -57.02,0 -105.61,20.08 -145.77,60.23 -40.53,40.15 -60.82,88.75 -60.82,145.76 v 22.89 h -808.3 v -22.89 c 0,-57.02 -20.09,-105.61 -60.23,-145.76 -40.16,-40.15 -88.75,-60.23 -145.77,-60.23 -57.01,0 -105.8,20.08 -146.36,60.23 -40.15,40.15 -60.23,88.74 -60.23,145.76 v 22.89 h -106 c -17.28,0 -30.53,-4.82 -39.76,-14.46 -8.03,-8.43 -12.44,-20.08 -13.25,-34.94 l -1.2,-79.5 c 0,-9.24 5.42,-15.47 16.26,-18.67 10.43,-3.62 15.66,-9.25 15.66,-16.87 0,-24.9 4.42,-60.02 13.25,-105.4 11.24,-60.63 25.3,-95.77 42.16,-105.41 19.67,-13.24 54,-32.73 103,-58.42 48.59,-25.31 83.93,-42.38 106.01,-51.2 14.45,-7.24 22.68,-11.44 24.69,-12.64 5.63,-4.02 14.06,-11.85 25.3,-23.49 3.61,-3.62 23.49,-23.49 59.63,-59.63 32.92,-32.93 59.23,-60.44 78.9,-82.52 24.09,-26.9 47.18,-45.77 69.27,-56.62 19.67,-9.64 42.16,-14.45 67.45,-14.45 h 1123.92 c 29.32,0 51.2,6.02 65.64,18.07 12.87,10.84 20.7,26.9 23.51,48.18 z m -87.34,-164.43 -10.26,63.24 -758.29,-17.46 c -38.55,-196.75 -67.46,-328.66 -86.74,-395.72 324.04,91.94 609.15,208.61 855.29,349.94 z M 1015.74,159.1 c 16.87,52.19 41.57,159.81 74.09,322.84 l -1.21,0.6 -180.09,73.48 -1.81,1.21 -97.57,-2.41 45.78,-436.68 c 56.62,13.25 110.22,26.9 160.81,40.96 z M 402.59,1209.53 c 32.12,-32.12 70.87,-48.18 116.24,-48.18 44.98,0 83.53,16.06 115.65,48.18 32.12,32.13 48.18,70.87 48.18,116.25 0,45.38 -16.06,84.12 -48.18,116.24 -31.72,32.13 -70.26,48.19 -115.65,48.19 -45.37,0 -84.12,-16.06 -116.24,-48.19 -32.13,-32.12 -48.18,-70.86 -48.18,-116.24 0,-45.38 16.05,-84.12 48.18,-116.25 z m 692.05,-703.5 11.45,55.41 -139.13,-3.01 z M 561.6,855.37 c -7.63,11.24 -9.03,21.69 -4.22,31.32 4.82,9.25 12.84,13.86 24.1,13.86 h 268.63 c 20.48,0 33.73,-3.62 39.75,-10.85 4.02,-5.21 6.03,-16.46 6.03,-33.72 V 688.53 H 759.76 c -21.28,0 -37.34,2.81 -48.18,8.44 -12.05,6.02 -30.72,21.88 -56.01,47.58 -40.97,41.76 -72.29,78.7 -93.97,110.82 z M 331.52,1070.4 c 3.21,-14.46 5.22,-30.72 6.02,-48.79 v -23.49 c -14.85,-3.21 -29.91,-1.21 -45.17,6.02 -30.52,13.65 -46.38,45.59 -47.58,95.77 -0.8,7.23 12.45,8.03 39.75,2.41 27.7,-6.02 43.36,-16.66 46.98,-31.92 z m 275.86,255.38 c 0,-24.49 -8.62,-45.38 -25.9,-62.64 -17.28,-17.26 -38.16,-25.89 -62.65,-25.89 -24.49,0 -45.56,8.64 -63.24,25.89 -17.26,17.29 -25.9,38.15 -25.9,62.64 0,24.9 8.63,45.98 25.9,63.24 17.67,17.26 38.75,25.91 63.24,25.91 24.51,0 45.39,-8.64 62.65,-25.91 17.28,-17.67 25.9,-38.75 25.9,-63.24 z m 878.77,-868.53 c -2.4,-17.28 -10.63,-34.13 -24.7,-50.6 -27.3,-33.34 -69.06,-49.99 -125.27,-49.99 -56.22,0 -98.58,16.47 -127.09,49.4 -9.26,10.44 -16.48,21.88 -21.7,34.34 -2.4,6.41 -4,11.83 -4.81,16.26 l -0.6,1.8 v 24.7 c 0,3.23 1.21,5.82 3.62,7.83 2.41,2.41 5.02,3.61 7.81,3.61 h 281.89 c 3.23,0 5.82,-1.21 7.83,-3.61 2.4,-2.02 3.62,-4.62 3.62,-7.84 V 458.46 Z M 1333.77,897.53 V 689.14 H 979 v 210.8 z m 469.2,-207.19 c -10.03,-1.21 -50.79,-1.42 -122.26,-0.6 -120.47,0.79 -210.22,1.2 -269.25,1.2 v 209.02 l 411.99,0.6 c 12.44,0 22.68,-2.41 30.72,-7.23 8.82,-5.23 13.26,-12.65 13.26,-22.29 0,-43.37 -2.43,-84.32 -7.24,-122.87 -2.41,-19.68 -7.62,-33.53 -15.66,-41.56 -8.03,-8.45 -21.88,-13.86 -41.56,-16.27 z m -7.24,572.8 c -17.26,-17.26 -38.14,-25.89 -62.63,-25.89 -24.51,0 -45.59,8.64 -63.24,25.89 -17.28,17.29 -25.91,38.15 -25.91,62.64 0,24.9 8.64,45.98 25.91,63.24 17.65,17.26 38.73,25.91 63.24,25.91 24.49,0 45.39,-8.64 62.63,-25.91 17.28,-17.67 25.9,-38.75 25.9,-63.24 0,-24.49 -8.63,-45.38 -25.9,-62.64 z"
     id="path7"
     style="fill:#2b2a29" /></g> </svg>