<?xml version="1.0" standalone="no"?>
<!DOCTYPE svg PUBLIC "-//W3C//DTD SVG 20010904//EN"
 "http://www.w3.org/TR/2001/REC-SVG-20010904/DTD/svg10.dtd">
<svg version="1.0" xmlns="http://www.w3.org/2000/svg"
 width="358.000000pt" height="214.000000pt" viewBox="0 0 358.000000 214.000000"
 preserveAspectRatio="xMidYMid meet">
<metadata>
Created by potrace 1.16, written by Peter Selinger 2001-2019
</metadata>
<g transform="translate(0.000000,214.000000) scale(0.100000,-0.100000)"
fill="#000000" stroke="none">
<path d="M160 2054 c-43 -18 -76 -49 -98 -89 -15 -27 -17 -101 -20 -730 -4
-751 -2 -780 46 -837 44 -52 92 -68 213 -68 l105 0 13 -49 c35 -136 189 -251
336 -251 58 0 162 34 206 68 73 56 139 157 139 213 0 19 16 19 664 19 l664 0
7 -33 c19 -90 105 -190 204 -235 76 -36 201 -38 274 -4 99 45 167 118 203 219
l18 51 126 4 c144 3 198 22 246 85 43 57 54 118 54 308 0 267 -23 355 -116
456 -60 63 -107 91 -216 128 -198 67 -270 132 -366 331 -94 196 -259 333 -482
402 l-75 23 -1055 2 c-928 2 -1059 1 -1090 -13z m2155 -109 c74 -16 194 -68
235 -103 l25 -21 -130 -1 c-112 0 -134 -3 -163 -20 -55 -33 -62 -66 -62 -272
0 -162 2 -186 20 -223 11 -23 32 -47 46 -53 17 -9 141 -12 412 -12 l387 0 105
-35 c117 -39 166 -72 211 -144 16 -25 29 -49 29 -53 0 -4 -29 -8 -65 -8 l-65
0 0 -55 0 -55 75 0 75 0 0 -105 0 -105 -234 0 c-231 0 -234 0 -291 26 -76 35
-163 42 -240 19 -33 -9 -68 -23 -79 -31 -17 -12 -149 -14 -832 -14 l-812 0
-58 28 c-51 23 -72 27 -149 27 -77 0 -98 -4 -149 -27 -58 -28 -61 -28 -257
-28 l-199 0 0 105 0 104 73 3 72 3 3 52 3 52 -73 3 -73 3 0 458 0 459 24 19
c23 18 54 19 1045 19 862 0 1032 -3 1091 -15z m413 -284 c17 -26 46 -81 64
-122 19 -41 56 -100 81 -131 43 -53 45 -58 25 -58 -13 0 -144 -1 -293 -1
l-270 1 -3 180 -2 180 184 0 184 0 30 -49z m-1896 -1043 c59 -17 133 -88 152
-145 42 -122 -7 -246 -119 -306 -30 -16 -58 -21 -110 -21 -52 0 -80 5 -110 21
-157 84 -180 290 -44 406 64 55 145 71 231 45z m2035 -3 c99 -41 153 -123 153
-230 -1 -253 -333 -338 -454 -116 -68 126 -19 278 109 337 59 28 138 31 192 9z
m-2437 -92 c-11 -27 -21 -56 -24 -65 -5 -16 -19 -18 -105 -18 -120 0 -140 11
-148 83 l-6 47 151 0 150 0 -18 -47z m2037 35 c-3 -7 -14 -37 -23 -65 l-18
-53 -658 0 c-619 0 -659 1 -664 18 -3 9 -13 38 -24 65 l-18 47 705 0 c560 0
704 -3 700 -12z m978 -20 c-4 -18 -20 -46 -36 -63 -29 -30 -31 -30 -152 -33
l-122 -3 -19 53 c-10 29 -21 59 -23 66 -4 9 35 12 177 12 l182 0 -7 -32z"/>
<path d="M267 1343 c-4 -3 -7 -28 -7 -55 l0 -48 916 0 915 0 -3 53 -3 52 -906
3 c-498 1 -908 -1 -912 -5z"/>
</g>
</svg>
