<?xml version="1.0" standalone="no"?>
<!DOCTYPE svg PUBLIC "-//W3C//DTD SVG 20010904//EN"
 "http://www.w3.org/TR/2001/REC-SVG-20010904/DTD/svg10.dtd">
<svg version="1.0" xmlns="http://www.w3.org/2000/svg"
 width="512.000000pt" height="512.000000pt" viewBox="0 0 512.000000 512.000000"
 preserveAspectRatio="xMidYMid meet">

<g transform="translate(0.000000,512.000000) scale(0.100000,-0.100000)"
fill="#000000" stroke="none">
<path d="M2445 5113 c-280 -37 -538 -222 -667 -478 -54 -105 -80 -212 -86
-344 -6 -142 6 -228 49 -345 57 -158 176 -313 316 -412 274 -196 638 -213 940
-43 101 57 254 206 312 305 44 76 95 204 105 269 9 55 -20 95 -70 95 -45 0
-69 -26 -83 -89 -15 -71 -62 -171 -116 -246 -151 -212 -421 -331 -671 -296
-173 24 -306 91 -429 215 -65 65 -90 99 -128 176 -58 118 -77 197 -77 326 0
204 66 362 214 509 151 150 293 209 501 210 142 0 211 -16 335 -77 68 -33 102
-59 176 -132 76 -76 99 -106 137 -184 25 -51 49 -108 53 -126 9 -48 38 -76 79
-76 39 0 75 31 75 65 0 28 -41 148 -70 205 -166 326 -534 521 -895 473z"/>
<path d="M2715 4320 c-110 -110 -205 -200 -210 -200 -6 0 -75 65 -155 145
-126 126 -149 145 -177 145 -37 0 -73 -38 -73 -78 0 -38 351 -389 398 -398 33
-7 38 -2 278 237 265 266 270 273 219 324 -49 50 -61 42 -280 -175z"/>
<path d="M3925 4041 c-16 -10 -154 -144 -306 -297 -295 -297 -303 -307 -280
-377 7 -19 25 -47 41 -62 17 -16 30 -34 30 -40 0 -7 -45 -56 -100 -109 -126
-123 -194 -158 -315 -164 -68 -3 -95 1 -179 27 -78 25 -116 31 -185 31 -168 0
-275 -47 -419 -184 l-93 -90 -199 199 -200 199 25 26 c33 35 48 78 40 120 -5
29 -54 82 -288 318 -155 156 -294 290 -309 298 -34 18 -82 18 -116 0 -15 -8
-250 -239 -524 -513 -394 -395 -497 -505 -503 -530 -15 -73 -6 -84 269 -362
143 -145 279 -276 300 -292 53 -40 121 -41 166 -2 l32 26 229 -229 c126 -126
229 -233 229 -238 0 -5 -101 -111 -223 -235 -193 -195 -226 -233 -240 -275
-20 -58 -22 -139 -5 -187 32 -95 124 -172 219 -185 l47 -6 6 -47 c16 -118 136
-231 246 -231 25 0 28 -4 39 -59 19 -96 86 -177 176 -211 34 -13 139 -17 171
-6 18 6 24 0 38 -33 21 -53 79 -117 130 -143 22 -11 68 -23 102 -26 86 -6 150
17 219 80 l55 50 118 -114 c144 -140 185 -162 297 -163 68 0 89 4 137 28 98
48 164 142 175 251 l5 53 42 1 c147 6 286 144 286 285 l0 47 40 0 c140 0 277
128 296 276 6 52 6 52 48 58 118 18 205 76 254 170 23 44 27 63 27 136 0 125
-17 155 -183 322 l-136 138 314 315 314 314 43 -40 c37 -34 48 -39 91 -39 38
0 58 6 88 29 21 16 157 147 301 293 221 222 262 269 268 300 12 66 -7 96 -158
246 -121 119 -148 142 -174 142 -37 0 -73 -36 -73 -75 0 -23 24 -52 125 -154
l125 -127 -250 -249 -250 -250 -465 465 -465 465 250 250 250 250 238 -238
c206 -205 242 -237 268 -237 38 0 74 36 74 75 0 25 -39 68 -247 278 -137 137
-260 255 -275 263 -37 19 -87 18 -123 -5z m-2543 -498 l248 -248 -126 -126
c-108 -109 -125 -130 -126 -159 -1 -38 38 -80 74 -80 11 0 50 29 89 67 l70 67
199 -199 199 -199 -58 -62 c-83 -89 -106 -140 -106 -239 0 -60 6 -91 22 -126
30 -66 86 -124 151 -156 47 -23 70 -28 132 -27 114 0 148 20 314 183 78 76
155 146 173 155 40 20 119 21 156 1 44 -22 1005 -975 1023 -1014 21 -43 14
-123 -13 -159 -54 -73 -152 -88 -228 -34 -53 37 -90 40 -122 10 -31 -29 -29
-64 7 -117 40 -58 47 -101 25 -157 -22 -59 -71 -96 -136 -102 -44 -4 -56 0
-108 32 -68 42 -79 43 -115 15 -35 -28 -34 -71 4 -128 24 -35 30 -55 30 -95 0
-140 -150 -208 -265 -120 -43 32 -88 32 -114 -2 -29 -36 -26 -65 9 -109 56
-71 52 -153 -10 -215 -43 -43 -87 -56 -147 -45 -31 5 -61 29 -156 123 l-117
116 44 46 c67 69 90 122 90 205 0 114 -58 209 -154 251 -29 13 -39 22 -34 34
3 8 10 40 16 70 21 111 -38 227 -144 284 -57 31 -58 31 -50 66 11 52 5 131
-13 173 -21 50 -80 114 -129 140 -26 13 -69 23 -115 26 l-74 6 -13 45 c-18 61
-72 122 -136 154 -60 30 -165 36 -222 12 l-33 -14 -239 239 -239 239 183 183
c122 123 182 190 182 205 0 36 -42 75 -80 74 -30 -1 -59 -26 -267 -234 l-233
-233 -250 250 -250 250 462 462 c255 255 465 463 468 463 3 0 116 -111 252
-247z m2788 -1038 c0 -6 -139 -150 -310 -320 l-310 -310 -230 230 c-126 126
-230 232 -230 236 0 3 67 24 148 47 238 67 252 72 273 93 40 40 6 119 -52 119
-17 0 -124 -27 -239 -60 -115 -33 -219 -60 -232 -60 -13 0 -57 16 -98 36 -62
31 -89 38 -155 41 -134 8 -168 -10 -349 -187 -159 -154 -196 -178 -259 -166
-76 14 -137 85 -137 157 0 63 37 113 219 293 216 212 259 239 401 244 71 3 98
-1 165 -23 157 -51 305 -44 444 22 59 28 96 57 190 148 l116 114 323 -322
c177 -177 322 -326 322 -332z m-2573 -755 c22 -13 36 -32 44 -60 23 -77 14
-91 -263 -367 -218 -216 -258 -252 -291 -258 -76 -14 -147 43 -147 119 0 23 7
53 16 66 24 36 442 457 488 491 47 35 105 39 153 9z m342 -235 c16 -14 35 -41
41 -60 23 -68 7 -90 -254 -354 -295 -298 -322 -321 -382 -321 -79 0 -139 78
-119 157 7 30 514 549 570 584 44 28 106 25 144 -6z m171 -363 c46 -25 74 -81
65 -130 -6 -32 -41 -72 -243 -275 -172 -172 -246 -240 -270 -246 -90 -25 -181
65 -153 152 7 21 88 109 243 263 128 128 242 237 253 243 30 16 66 13 105 -7z
m194 -412 c19 -17 38 -44 41 -60 14 -62 -2 -89 -134 -223 -69 -71 -138 -135
-153 -143 -91 -48 -201 33 -182 134 6 29 30 61 118 151 142 146 176 171 232
171 34 0 51 -7 78 -30z"/>
</g>
</svg>
