<?xml version="1.0" standalone="no"?>
<!DOCTYPE svg PUBLIC "-//W3C//DTD SVG 20010904//EN"
 "http://www.w3.org/TR/2001/REC-SVG-20010904/DTD/svg10.dtd">
<svg version="1.0" xmlns="http://www.w3.org/2000/svg"
 width="200.000000pt" height="200.000000pt" viewBox="0 0 200.000000 200.000000"
 preserveAspectRatio="xMidYMid meet">

<g transform="translate(0.000000,200.000000) scale(0.100000,-0.100000)"
fill="#000000" stroke="none">
<path d="M1013 1566 c-40 -23 -46 -24 -108 -13 -175 30 -356 -66 -437 -231
-40 -81 -50 -205 -24 -294 35 -121 142 -234 259 -275 75 -26 214 -24 287 5
l55 22 185 -185 186 -185 48 0 c39 0 53 5 77 29 24 24 29 38 29 77 l0 48 -185
186 -186 186 23 50 c20 42 23 66 23 170 1 95 4 126 17 146 59 90 31 215 -60
266 -55 31 -133 30 -189 -2z m140 -40 c72 -30 102 -100 74 -169 -40 -94 -173
-103 -227 -14 -38 61 -14 144 51 179 40 22 59 22 102 4z m-235 -45 c9 -5 11
-19 7 -43 -22 -118 95 -233 215 -213 l38 6 7 -41 c23 -133 -64 -294 -193 -357
-78 -38 -194 -44 -274 -13 -79 29 -150 96 -190 178 -29 59 -33 76 -33 147 1
65 6 91 27 136 44 97 120 166 211 195 47 14 165 18 185 5z m420 -774 c95 -95
172 -180 172 -189 0 -23 -36 -51 -57 -44 -10 3 -94 82 -187 175 l-170 170 30
29 c16 16 31 30 34 31 3 0 83 -77 178 -172z"/>
<path d="M1050 1452 c0 -10 5 -23 11 -29 8 -8 6 -18 -5 -36 -15 -22 -15 -25
-1 -37 13 -11 19 -10 35 5 19 17 21 17 39 1 11 -10 25 -15 30 -11 15 8 14 38
-1 53 -9 9 -9 15 0 24 18 18 15 48 -6 48 -10 0 -23 -5 -30 -12 -9 -9 -15 -9
-24 0 -18 18 -48 15 -48 -6z"/>
</g>
</svg>
