<?xml version="1.0" standalone="no"?>
<!DOCTYPE svg PUBLIC "-//W3C//DTD SVG 20010904//EN"
 "http://www.w3.org/TR/2001/REC-SVG-20010904/DTD/svg10.dtd">
<svg version="1.0" xmlns="http://www.w3.org/2000/svg"
 width="570.000000pt" height="458.000000pt" viewBox="0 0 570.000000 458.000000"
 preserveAspectRatio="xMidYMid meet">

<g transform="translate(0.000000,458.000000) scale(0.100000,-0.100000)"
fill="#000000" stroke="none">
<path d="M2730 4259 c-512 -56 -987 -309 -1309 -694 -212 -255 -357 -555 -428
-890 -26 -122 -27 -145 -27 -385 0 -241 1 -262 27 -385 134 -630 521 -1127
1092 -1401 624 -301 1371 -245 1951 145 197 132 352 280 492 470 82 110 73
161 -29 161 -46 0 -47 -1 -99 -71 -114 -153 -291 -320 -460 -433 -919 -616
-2160 -279 -2645 719 -250 513 -248 1084 5 1600 286 584 857 968 1506 1014
513 36 982 -132 1385 -498 l92 -83 51 5 c58 5 96 39 96 86 0 33 -86 447 -100
478 -20 47 -114 36 -126 -14 -4 -14 6 -85 21 -159 16 -74 26 -137 22 -140 -3
-3 -36 19 -73 50 -248 211 -578 359 -919 411 -124 19 -411 27 -525 14z"/>
<path d="M2905 3988 c-3 -8 -4 -90 -3 -183 l3 -170 30 0 30 0 0 180 0 180 -28
3 c-16 2 -29 -2 -32 -10z"/>
<path d="M2072 3768 c-7 -7 -12 -18 -12 -26 0 -16 143 -268 165 -291 15 -16
51 -7 59 15 6 16 -145 291 -168 306 -16 11 -30 10 -44 -4z"/>
<path d="M3736 3758 c-68 -110 -156 -274 -154 -286 4 -20 32 -37 50 -30 16 7
178 282 178 304 0 13 -29 34 -49 34 -6 0 -17 -10 -25 -22z"/>
<path d="M2886 3344 c-14 -14 -16 -83 -16 -612 l0 -597 283 -283 c156 -155
290 -282 299 -282 8 0 27 9 42 21 54 42 48 52 -239 339 l-265 265 0 567 c0
623 2 598 -60 598 -16 0 -36 -7 -44 -16z"/>
<path d="M1468 3159 c-10 -6 -18 -20 -18 -33 0 -19 24 -37 142 -105 152 -88
183 -96 183 -47 0 27 -9 35 -82 77 -193 111 -207 118 -225 108z"/>
<path d="M4359 3156 c-102 -54 -261 -151 -268 -165 -12 -21 4 -51 27 -51 17 0
255 131 285 158 39 35 3 83 -44 58z"/>
<path d="M1230 2315 c-10 -12 -10 -21 -2 -41 l12 -24 171 2 c151 3 173 5 183
21 8 12 8 22 0 35 -10 15 -32 17 -181 20 -144 2 -172 0 -183 -13z"/>
<path d="M4282 2318 c-7 -7 -12 -19 -12 -28 0 -35 21 -40 181 -40 87 0 164 3
173 6 9 4 16 18 16 34 0 16 -7 30 -16 34 -31 12 -329 7 -342 -6z"/>
<path d="M1590 1560 c-106 -63 -136 -85 -138 -103 -2 -13 4 -29 12 -37 14 -10
39 1 163 72 139 78 148 85 148 113 0 51 -36 42 -185 -45z"/>
<path d="M4091 1622 c-6 -11 -6 -24 0 -34 5 -9 72 -53 149 -98 118 -68 143
-79 160 -70 25 13 26 42 3 62 -32 27 -268 158 -285 158 -10 0 -22 -8 -27 -18z"/>
<path d="M2212 1113 c-41 -60 -152 -260 -152 -275 0 -22 26 -41 47 -34 15 5
183 280 183 299 0 11 -32 37 -45 37 -8 0 -22 -12 -33 -27z"/>
<path d="M3598 1129 c-10 -5 -18 -15 -18 -21 0 -19 162 -299 176 -305 19 -7
54 16 53 35 -1 26 -163 297 -179 299 -8 2 -23 -2 -32 -8z"/>
<path d="M2905 938 c-3 -8 -4 -90 -3 -183 l3 -170 30 0 30 0 0 180 0 180 -28
3 c-16 2 -29 -2 -32 -10z"/>
</g>
</svg>
